<svg width="1704" height="1695" viewBox="0 0 1704 1695" fill="none" xmlns="http://www.w3.org/2000/svg">
<path d="M795.6 151.339C491.85 151.339 510.819 282.854 510.819 282.854L511.157 419.102H801.017V460.01H396.026C396.026 460.01 201.657 438.002 201.657 744.001C201.657 1050 371.306 1039.15 371.306 1039.15H472.554V897.153C472.554 897.153 467.097 727.773 639.495 727.773C811.893 727.773 926.985 727.773 926.985 727.773C926.985 727.773 1088.51 730.38 1088.51 571.916C1088.51 413.452 1088.51 309.901 1088.51 309.901C1088.51 309.901 1113.03 151.339 795.6 151.339ZM635.77 242.96C664.609 242.96 687.918 266.232 687.918 295.025C687.918 323.818 664.609 347.09 635.77 347.09C606.931 347.09 583.622 323.818 583.622 295.025C583.622 266.232 606.931 242.96 635.77 242.96Z" fill="url(#paint0_linear_10:2)"/>
<path d="M854.99 725.017V576.059L513.751 660.85L854.99 725.017Z" fill="#BC8F00"/>
<path d="M854.99 576.059L1184.78 628.767L944.307 741.058L854.99 725.017V576.059Z" fill="#987A1B"/>
<path d="M827.824 909.845L778.344 798.099C777.461 796.129 777.013 793.991 777.029 791.832V636.09H744.397C742.421 636.099 740.463 635.715 738.635 634.962C736.808 634.209 735.147 633.102 733.75 631.703C732.352 630.305 731.245 628.643 730.493 626.815C729.74 624.986 729.357 623.026 729.366 621.049V601.432H689.907C686.829 609.325 681.451 616.11 674.47 620.904C667.489 625.699 659.229 628.283 650.762 628.319C639.632 628.319 628.958 623.895 621.089 616.02C613.219 608.145 608.798 597.465 608.798 586.328C608.814 575.197 613.241 564.526 621.107 556.655C628.973 548.783 639.637 544.354 650.762 544.337C659.234 544.387 667.496 546.983 674.476 551.789C681.456 556.594 686.832 563.387 689.907 571.287H744.397C748.379 571.303 752.193 572.893 755.008 575.71C757.824 578.528 759.413 582.344 759.429 586.328V606.007H792.061C796.043 606.024 799.856 607.614 802.672 610.431C805.487 613.248 807.076 617.065 807.093 621.049V788.824L814.421 805.307L812.918 793.963C812.918 793.211 812.918 792.584 812.918 791.957V558.313H695.794C691.813 558.297 687.999 556.707 685.184 553.89C682.368 551.072 680.779 547.256 680.763 543.272V532.931H633.036C629.95 540.836 624.563 547.631 617.572 552.436C610.581 557.241 602.309 559.834 593.828 559.88C582.704 559.864 572.04 555.434 564.174 547.563C556.308 539.692 551.881 529.021 551.865 517.89C551.881 506.758 556.308 496.087 564.174 488.216C572.04 480.345 582.704 475.915 593.828 475.899C602.309 475.945 610.581 478.538 617.572 483.343C624.563 488.148 629.95 494.943 633.036 502.848H680.763C672.868 499.771 666.079 494.392 661.277 487.407C656.475 480.423 653.88 472.155 653.831 463.678C653.847 452.546 658.274 441.875 666.14 434.004C674.006 426.133 684.67 421.703 695.794 421.687C701.305 421.687 706.762 422.773 711.853 424.883C716.945 426.993 721.571 430.086 725.467 433.986C729.364 437.885 732.455 442.514 734.564 447.608C736.673 452.703 737.758 458.163 737.758 463.678C737.722 472.15 735.14 480.416 730.349 487.401C725.557 494.386 718.777 499.768 710.889 502.848V528.356H757.174V462.299C749.352 459.222 742.624 453.882 737.849 446.961C733.075 440.04 730.47 431.851 730.368 423.442C730.384 412.31 734.811 401.639 742.677 393.768C750.543 385.897 761.207 381.468 772.332 381.451C783.461 381.451 794.135 385.875 802.005 393.75C809.874 401.625 814.296 412.305 814.296 423.442C814.263 431.923 811.675 440.198 806.871 447.186C802.066 454.174 795.268 459.55 787.363 462.612V528.544H813.669C806.858 524.986 801.15 519.629 797.164 513.056C793.178 506.482 791.067 498.942 791.059 491.254C791.075 480.122 795.502 469.451 803.368 461.58C811.234 453.709 821.898 449.279 833.023 449.263C841.495 449.313 849.757 451.909 856.737 456.714C863.717 461.519 869.093 468.312 872.168 476.212H895.718V462.299C887.826 459.281 881.018 453.967 876.173 447.041C871.328 440.115 868.667 431.895 868.535 423.442C868.552 412.31 872.979 401.639 880.845 393.768C888.711 385.897 899.375 381.468 910.499 381.451C921.624 381.468 932.288 385.897 940.154 393.768C948.02 401.639 952.447 412.31 952.463 423.442C952.413 431.919 949.819 440.187 945.017 447.171C940.215 454.156 933.426 459.535 925.531 462.612V504.916H998.999C1002.08 497.023 1007.46 490.239 1014.44 485.444C1021.42 480.649 1029.68 478.066 1038.14 478.03C1049.26 478.03 1059.93 482.445 1067.8 490.306C1075.66 498.168 1080.09 508.832 1080.11 519.958C1080.11 531.1 1075.69 541.787 1067.82 549.672C1059.95 557.557 1049.28 561.995 1038.14 562.011C1029.67 561.961 1021.41 559.365 1014.43 554.56C1007.45 549.755 1002.07 542.962 998.999 535.062H925.531V632.33C925.531 636.319 923.948 640.145 921.129 642.966C918.309 645.787 914.486 647.371 910.499 647.371H880.06V791.957C880.156 792.916 880.156 793.882 880.06 794.84L879.246 799.29L884.507 788.51V670.498C884.49 666.503 886.056 662.664 888.861 659.821C891.667 656.979 895.484 655.364 899.476 655.331H944.384V582.38C944.384 578.391 945.967 574.565 948.786 571.744C951.605 568.923 955.429 567.338 959.415 567.338H1069.4C1072.47 559.439 1077.85 552.646 1084.83 547.84C1091.81 543.035 1100.07 540.439 1108.54 540.389C1119.58 540.537 1130.12 545.025 1137.88 552.882C1145.63 560.739 1149.99 571.334 1150.01 582.38C1150.01 593.516 1145.59 604.197 1137.72 612.072C1129.85 619.947 1119.17 624.371 1108.04 624.371C1099.57 624.338 1091.3 621.749 1084.31 616.941C1077.33 612.133 1071.96 605.331 1068.9 597.421H974.197V630.262H1003.32C1006.41 622.357 1011.79 615.562 1018.79 610.757C1025.78 605.952 1034.05 603.358 1042.53 603.312C1053.65 603.329 1064.31 607.76 1072.16 615.633C1080.02 623.506 1084.43 634.177 1084.43 645.303C1084.43 656.429 1080.02 667.1 1072.16 674.973C1064.31 682.846 1053.65 687.277 1042.53 687.294C1034.05 687.257 1025.77 684.667 1018.78 679.86C1011.79 675.054 1006.4 668.254 1003.32 660.345H974.197V670.372C974.197 674.362 972.613 678.187 969.794 681.008C966.975 683.829 963.152 685.414 959.165 685.414H914.257V791.957C914.266 794.257 913.752 796.529 912.754 798.601L858.076 909.845H827.824ZM845.737 812.639L849.996 790.516V632.581C850.046 628.624 851.651 624.846 854.465 622.066C857.278 619.286 861.074 617.727 865.028 617.727H895.468V506.17H871.918C869.202 513.183 864.665 519.344 858.774 524.015C852.883 528.687 845.853 531.7 838.409 532.743C839.846 534.103 841 535.732 841.806 537.539C842.612 539.346 843.054 541.294 843.107 543.272V791.017L845.737 812.639ZM1042.53 633.583C1039.38 633.583 1036.37 634.829 1034.14 637.049C1031.91 639.269 1030.65 642.281 1030.63 645.429C1030.63 648.587 1031.88 651.616 1034.11 653.849C1036.35 656.082 1039.37 657.336 1042.53 657.336C1045.67 657.32 1048.69 656.058 1050.9 653.827C1053.12 651.595 1054.37 648.576 1054.37 645.429C1054.37 643.873 1054.06 642.333 1053.47 640.896C1052.87 639.459 1052 638.153 1050.9 637.053C1049.8 635.953 1048.5 635.08 1047.06 634.485C1045.62 633.89 1044.08 633.583 1042.53 633.583ZM650.762 574.483C649.199 574.483 647.651 574.791 646.208 575.389C644.764 575.988 643.452 576.865 642.347 577.971C641.242 579.077 640.365 580.389 639.767 581.834C639.169 583.279 638.861 584.827 638.861 586.391C638.861 587.955 639.169 589.503 639.767 590.948C640.365 592.393 641.242 593.705 642.347 594.811C643.452 595.917 644.764 596.794 646.208 597.392C647.651 597.991 649.199 598.299 650.762 598.299C653.918 598.299 656.945 597.044 659.176 594.811C661.408 592.578 662.662 589.549 662.662 586.391C662.662 583.233 661.408 580.204 659.176 577.971C656.945 575.738 653.918 574.483 650.762 574.483ZM1108.29 570.535C1105.15 570.535 1102.13 571.781 1099.9 574C1097.67 576.22 1096.41 579.233 1096.39 582.38C1096.41 585.533 1097.67 588.552 1099.9 590.782C1102.13 593.011 1105.14 594.271 1108.29 594.288C1111.45 594.288 1114.48 593.033 1116.71 590.8C1118.94 588.567 1120.19 585.538 1120.19 582.38C1120.18 579.233 1118.92 576.22 1116.69 574C1114.46 571.781 1111.44 570.535 1108.29 570.535ZM1026.5 521.838C1026.86 524.674 1028.24 527.28 1030.39 529.172C1032.53 531.063 1035.29 532.109 1038.14 532.116C1041.3 532.116 1044.33 530.862 1046.56 528.629C1048.79 526.395 1050.05 523.367 1050.05 520.208C1050.03 517.061 1048.77 514.048 1046.54 511.829C1044.31 509.609 1041.29 508.363 1038.14 508.363C1035.29 508.384 1032.54 509.435 1030.4 511.323C1028.26 513.212 1026.87 515.811 1026.5 518.642C1026.54 519.163 1026.54 519.687 1026.5 520.208C1026.53 520.751 1026.53 521.295 1026.5 521.838ZM593.703 505.982C590.552 505.998 587.535 507.258 585.307 509.488C583.078 511.717 581.819 514.736 581.803 517.89C581.819 521.043 583.078 524.062 585.307 526.291C587.535 528.521 590.552 529.781 593.703 529.797C595.266 529.797 596.813 529.489 598.257 528.891C599.701 528.293 601.013 527.415 602.118 526.31C603.223 525.204 604.099 523.891 604.698 522.446C605.296 521.002 605.603 519.453 605.603 517.89C605.603 516.326 605.296 514.777 604.698 513.333C604.099 511.888 603.223 510.575 602.118 509.469C601.013 508.364 599.701 507.487 598.257 506.888C596.813 506.29 595.266 505.982 593.703 505.982ZM832.772 479.032C829.621 479.049 826.604 480.309 824.376 482.538C822.147 484.768 820.888 487.787 820.872 490.94C820.872 494.098 822.126 497.127 824.357 499.36C826.589 501.594 829.616 502.848 832.772 502.848C835.928 502.848 838.955 501.594 841.187 499.36C843.419 497.127 844.672 494.098 844.672 490.94C844.656 487.787 843.397 484.768 841.169 482.538C838.941 480.309 835.923 479.049 832.772 479.032ZM695.669 451.644C692.524 451.661 689.513 452.923 687.295 455.154C685.077 457.386 683.832 460.405 683.832 463.552C683.832 466.7 685.077 469.719 687.295 471.95C689.513 474.182 692.524 475.444 695.669 475.46C698.82 475.444 701.838 474.184 704.066 471.954C706.294 469.725 707.553 466.705 707.569 463.552C707.569 460.394 706.316 457.365 704.084 455.132C701.852 452.899 698.825 451.644 695.669 451.644ZM910.499 411.221C907.343 411.221 904.316 412.475 902.085 414.708C899.853 416.941 898.599 419.97 898.599 423.128C898.616 426.281 899.875 429.301 902.103 431.53C904.331 433.76 907.348 435.02 910.499 435.036C913.65 435.02 916.668 433.76 918.896 431.53C921.124 429.301 922.383 426.281 922.4 423.128C922.4 419.97 921.146 416.941 918.914 414.708C916.682 412.475 913.655 411.221 910.499 411.221ZM772.081 411.221C768.93 411.237 765.913 412.497 763.685 414.726C761.456 416.956 760.197 419.975 760.181 423.128C760.197 426.281 761.456 429.301 763.685 431.53C765.913 433.76 768.93 435.02 772.081 435.036C775.232 435.02 778.249 433.76 780.478 431.53C782.706 429.301 783.965 426.281 783.981 423.128C783.981 419.97 782.728 416.941 780.496 414.708C778.264 412.475 775.237 411.221 772.081 411.221Z" fill="white"/>
<path d="M912.002 388.972C916.509 388.98 920.97 389.879 925.128 391.618C929.286 393.357 933.06 395.902 936.232 399.105C939.404 402.308 941.912 406.108 943.612 410.284C945.312 414.461 946.17 418.932 946.137 423.442C946.115 431.238 943.433 438.793 938.536 444.856C933.638 450.919 926.818 455.127 919.205 456.784V513.189H1006.33C1007.95 505.542 1012.14 498.683 1018.2 493.756C1024.27 488.828 1031.84 486.131 1039.65 486.115C1048.69 486.115 1057.36 489.705 1063.76 496.097C1070.16 502.489 1073.77 511.161 1073.78 520.209C1073.78 529.273 1070.19 537.968 1063.79 544.383C1057.39 550.799 1048.71 554.411 1039.65 554.428C1031.86 554.406 1024.31 551.723 1018.25 546.822C1012.19 541.921 1007.98 535.097 1006.33 527.479H919.205V632.581C919.205 634.492 918.446 636.326 917.095 637.677C915.744 639.029 913.912 639.788 912.002 639.788H873.671V791.958C873.736 792.415 873.736 792.879 873.671 793.336L861.896 855.257L893.525 790.328V670.498C893.525 668.586 894.284 666.753 895.635 665.401C896.986 664.05 898.818 663.29 900.728 663.29H953.402V582.38C953.419 580.474 954.183 578.65 955.53 577.302C956.877 575.954 958.7 575.189 960.605 575.173H1076.41C1078.08 567.549 1082.3 560.724 1088.37 555.824C1094.44 550.924 1102 548.242 1109.8 548.223C1118.81 548.289 1127.44 551.915 1133.79 558.312C1140.15 564.709 1143.73 573.359 1143.74 582.38C1143.73 591.434 1140.12 600.112 1133.73 606.514C1127.33 612.916 1118.66 616.52 1109.61 616.537C1101.81 616.529 1094.24 613.852 1088.17 608.95C1082.1 604.048 1077.88 597.216 1076.23 589.587H967.808V638.221H1010.65C1012.34 630.638 1016.56 623.857 1022.62 618.993C1028.67 614.129 1036.2 611.473 1043.97 611.46C1053.02 611.477 1061.69 615.081 1068.09 621.483C1074.49 627.885 1078.09 636.563 1078.1 645.617C1078.1 654.676 1074.51 663.364 1068.11 669.769C1061.7 676.175 1053.02 679.773 1043.97 679.773C1036.18 679.763 1028.62 677.084 1022.56 672.181C1016.5 667.279 1012.29 660.448 1010.65 652.824H967.808V670.686C967.816 671.635 967.636 672.576 967.277 673.454C966.918 674.332 966.387 675.13 965.717 675.801C965.046 676.472 964.249 677.002 963.371 677.362C962.494 677.721 961.553 677.902 960.605 677.893H907.931V791.958C907.934 793.067 907.677 794.162 907.179 795.154L854.693 902.011H834.4L786.737 794.903C786.314 793.98 786.1 792.974 786.11 791.958V628.256H745.587C743.677 628.256 741.845 627.497 740.494 626.145C739.143 624.794 738.384 622.961 738.384 621.049V593.598H685.334C683.664 601.215 679.444 608.033 673.373 612.923C667.302 617.812 659.744 620.48 651.951 620.485C642.957 620.403 634.358 616.778 628.016 610.397C621.674 604.015 618.099 595.391 618.067 586.391C618.083 577.337 621.685 568.659 628.083 562.257C634.481 555.855 643.154 552.251 652.202 552.234C660 552.253 667.559 554.935 673.629 559.835C679.699 564.735 683.917 571.56 685.585 579.184H745.838C746.783 579.184 747.72 579.37 748.594 579.732C749.468 580.094 750.262 580.625 750.931 581.295C751.599 581.964 752.13 582.758 752.492 583.633C752.854 584.507 753.04 585.445 753.04 586.391V613.904H793.564C795.469 613.921 797.291 614.685 798.639 616.033C799.986 617.382 800.75 619.205 800.766 621.112V790.328L830.58 858.14L822.187 793.211C822.156 792.898 822.156 792.584 822.187 792.271V550.48H697.172C695.267 550.463 693.444 549.699 692.097 548.35C690.75 547.002 689.986 545.179 689.969 543.272V525.097H628.526C626.882 532.721 622.679 539.551 616.618 544.454C610.556 549.357 603 552.036 595.206 552.046C586.19 551.98 577.566 548.354 571.208 541.958C564.851 535.561 561.275 526.911 561.259 517.89C561.275 508.836 564.877 500.158 571.275 493.756C577.673 487.354 586.346 483.75 595.394 483.733C603.191 483.732 610.753 486.407 616.817 491.311C622.881 496.216 627.08 503.053 628.714 510.682H690.157V496.894C682.544 495.238 675.724 491.03 670.826 484.967C665.929 478.903 663.247 471.349 663.225 463.552C663.323 454.585 666.935 446.015 673.284 439.686C679.632 433.357 688.21 429.774 697.172 429.709C706.225 429.709 714.907 433.308 721.309 439.713C727.71 446.119 731.307 454.807 731.307 463.866C731.296 471.665 728.619 479.226 723.719 485.291C718.82 491.357 711.993 495.562 704.375 497.208V536.253H766.381V456.658C758.789 455.007 751.985 450.817 747.089 444.78C742.194 438.742 739.499 431.216 739.449 423.442C739.416 418.932 740.274 414.461 741.974 410.284C743.674 406.108 746.182 402.308 749.354 399.105C752.526 395.902 756.3 393.357 760.458 391.618C764.616 389.879 769.077 388.98 773.584 388.972C778.091 388.98 782.551 389.879 786.709 391.618C790.868 393.357 794.641 395.902 797.814 399.105C800.986 402.308 803.494 406.108 805.194 410.284C806.894 414.461 807.752 418.932 807.719 423.442C807.697 431.238 805.015 438.793 800.117 444.856C795.22 450.919 788.4 455.127 780.787 456.784V536.253H829.327C830.283 536.211 831.238 536.36 832.136 536.692C833.034 537.023 833.857 537.531 834.557 538.184C835.257 538.838 835.819 539.624 836.212 540.498C836.604 541.372 836.819 542.315 836.843 543.272V791.519L846.05 861.65L859.265 791.268V632.581C859.282 630.674 860.046 628.851 861.393 627.503C862.74 626.154 864.563 625.39 866.468 625.373H904.799V498.148H867.596C865.951 505.771 861.748 512.602 855.687 517.505C849.625 522.407 842.069 525.087 834.275 525.097C825.222 525.097 816.539 521.498 810.138 515.093C803.736 508.687 800.14 499.999 800.14 490.94C800.157 481.887 803.758 473.208 810.156 466.806C816.554 460.404 825.227 456.8 834.275 456.784C842.066 456.806 849.616 459.489 855.676 464.39C861.735 469.291 865.94 476.115 867.596 483.733H904.799V456.47C897.233 454.836 890.446 450.678 885.552 444.676C880.659 438.675 877.949 431.187 877.867 423.442C877.826 418.93 878.678 414.455 880.375 410.274C882.072 406.094 884.58 402.292 887.754 399.087C890.928 395.882 894.705 393.338 898.867 391.601C903.029 389.865 907.493 388.972 912.002 388.972ZM912.002 442.87C917.176 442.855 922.138 440.813 925.826 437.181C929.513 433.55 931.633 428.618 931.731 423.442C931.765 420.825 931.279 418.228 930.303 415.8C929.327 413.373 927.88 411.163 926.046 409.298C924.211 407.433 922.026 405.95 919.615 404.936C917.205 403.921 914.617 403.395 912.002 403.387C909.385 403.386 906.793 403.907 904.379 404.919C901.965 405.93 899.776 407.413 897.94 409.279C896.103 411.146 894.657 413.359 893.684 415.791C892.711 418.222 892.231 420.823 892.273 423.442C892.371 428.618 894.491 433.55 898.179 437.181C901.866 440.813 906.828 442.855 912.002 442.87ZM773.584 442.87C778.758 442.855 783.72 440.813 787.407 437.181C791.095 433.55 793.215 428.618 793.313 423.442C793.355 420.823 792.875 418.222 791.902 415.791C790.929 413.359 789.483 411.146 787.646 409.279C785.81 407.413 783.621 405.93 781.207 404.919C778.793 403.907 776.201 403.386 773.584 403.387C770.966 403.386 768.375 403.907 765.961 404.919C763.546 405.93 761.357 407.413 759.521 409.279C757.685 411.146 756.238 413.359 755.265 415.791C754.293 418.222 753.813 420.823 753.855 423.442C753.953 428.618 756.073 433.55 759.76 437.181C763.448 440.813 768.41 442.855 773.584 442.87ZM697.172 483.294C702.399 483.278 707.408 481.193 711.104 477.494C714.801 473.795 716.885 468.783 716.901 463.552C716.901 458.317 714.823 453.295 711.123 449.593C707.423 445.89 702.404 443.81 697.172 443.81C691.944 443.827 686.936 445.912 683.239 449.611C679.543 453.31 677.459 458.322 677.443 463.552C677.459 468.783 679.543 473.795 683.239 477.494C686.936 481.193 691.944 483.278 697.172 483.294ZM834.275 510.682C839.502 510.666 844.511 508.581 848.207 504.882C851.904 501.183 853.988 496.171 854.004 490.94C853.988 485.71 851.904 480.698 848.207 476.999C844.511 473.3 839.502 471.215 834.275 471.198C829.047 471.215 824.039 473.3 820.342 476.999C816.646 480.698 814.562 485.71 814.546 490.94C814.546 496.176 816.624 501.198 820.324 504.9C824.024 508.602 829.042 510.682 834.275 510.682ZM595.206 537.632C600.438 537.632 605.457 535.552 609.157 531.849C612.857 528.147 614.935 523.126 614.935 517.89C614.935 512.654 612.857 507.632 609.157 503.93C605.457 500.228 600.438 498.148 595.206 498.148C589.973 498.148 584.955 500.228 581.255 503.93C577.555 507.632 575.477 512.654 575.477 517.89C575.477 523.126 577.555 528.147 581.255 531.849C584.955 535.552 589.973 537.632 595.206 537.632ZM1039.9 539.95C1045.13 539.95 1050.15 537.871 1053.85 534.168C1057.55 530.466 1059.63 525.444 1059.63 520.209C1059.61 514.984 1057.52 509.978 1053.83 506.289C1050.13 502.601 1045.12 500.529 1039.9 500.529C1034.84 500.54 1029.98 502.5 1026.33 506.001C1022.68 509.503 1020.52 514.276 1020.29 519.331C1020.32 519.686 1020.32 520.042 1020.29 520.397C1020.33 520.772 1020.33 521.149 1020.29 521.525C1020.52 526.58 1022.68 531.353 1026.33 534.855C1029.98 538.356 1034.84 540.315 1039.9 540.327V539.95ZM1110.05 602.498C1115.28 602.498 1120.3 600.418 1124 596.716C1127.7 593.013 1129.78 587.992 1129.78 582.756C1129.76 577.531 1127.67 572.526 1123.98 568.837C1120.28 565.148 1115.27 563.077 1110.05 563.077C1104.83 563.077 1099.82 565.148 1096.12 568.837C1092.42 572.526 1090.33 577.531 1090.32 582.756C1090.32 587.992 1092.4 593.013 1096.1 596.716C1099.8 600.418 1104.81 602.498 1110.05 602.498ZM652.452 606.446C655.048 606.414 657.613 605.868 659.998 604.842C662.383 603.816 664.543 602.328 666.352 600.465C668.162 598.602 669.586 596.4 670.544 593.984C671.501 591.569 671.972 588.989 671.931 586.391C671.914 581.166 669.828 576.161 666.13 572.472C662.432 568.783 657.423 566.712 652.202 566.712C646.991 566.728 641.998 568.807 638.313 572.494C634.629 576.181 632.551 581.177 632.535 586.391C632.535 591.616 634.605 596.628 638.291 600.329C641.978 604.029 646.98 606.116 652.202 606.133L652.452 606.446ZM1043.97 665.233C1049.2 665.233 1054.22 663.153 1057.92 659.451C1061.62 655.749 1063.7 650.727 1063.7 645.491C1063.68 640.266 1061.6 635.261 1057.9 631.572C1054.2 627.883 1049.19 625.812 1043.97 625.812C1038.75 625.812 1033.74 627.883 1030.04 631.572C1026.34 635.261 1024.26 640.266 1024.24 645.491C1024.26 650.722 1026.34 655.734 1030.04 659.433C1033.73 663.132 1038.74 665.217 1043.97 665.233ZM912.002 373.304C898.713 373.304 885.968 378.586 876.572 387.989C867.175 397.391 861.896 410.144 861.896 423.442C862.002 432.508 864.562 441.375 869.304 449.101C874.047 456.826 880.794 463.12 888.828 467.313V468.065H878.118C873.928 460.026 867.638 453.274 859.917 448.529C852.197 443.783 843.335 441.221 834.275 441.116C829.063 441.118 823.885 441.942 818.93 443.56C821.818 437.244 823.334 430.387 823.377 423.442C823.377 410.198 818.141 397.493 808.812 388.099C799.483 378.705 786.818 373.386 773.584 373.304C760.635 373.293 748.185 378.299 738.844 387.273C729.502 396.246 723.996 408.489 723.478 421.436C715.518 416.385 706.284 413.711 696.859 413.728C683.624 413.727 670.926 418.967 661.539 428.302C652.151 437.637 646.835 450.309 646.753 463.552C646.832 474.978 650.81 486.034 658.026 494.889H638.798C634.578 486.794 628.23 480.006 620.437 475.256C612.644 470.507 603.704 467.977 594.58 467.939C581.291 467.939 568.546 473.222 559.149 482.625C549.752 492.027 544.473 504.78 544.473 518.078C544.473 531.375 549.752 544.128 559.149 553.531C568.546 562.933 581.291 568.216 594.58 568.216C598.42 568.202 602.245 567.739 605.979 566.837C603.483 573.048 602.269 579.699 602.409 586.391C602.409 599.688 607.688 612.441 617.084 621.844C626.481 631.247 639.226 636.529 652.515 636.529C661.632 636.498 670.569 633.977 678.361 629.239C686.153 624.501 692.505 617.726 696.733 609.643H723.29V621.425C723.306 627.487 725.72 633.296 730.004 637.582C734.288 641.869 740.093 644.284 746.151 644.301H771.204V791.958C771.189 795.152 771.851 798.313 773.145 801.233L820.558 908.341L824.692 917.679H864.965L869.224 908.905L921.773 802.361C923.149 799.073 923.769 795.518 923.589 791.958V693.373H960.605C963.61 693.382 966.586 692.796 969.363 691.649C972.141 690.502 974.664 688.818 976.789 686.692C978.913 684.566 980.597 682.041 981.743 679.262C982.889 676.483 983.474 673.504 983.466 670.498V668.304H999.688C1003.88 676.343 1010.17 683.095 1017.89 687.84C1025.61 692.586 1034.47 695.148 1043.53 695.254C1056.77 695.254 1069.46 690.014 1078.85 680.679C1088.24 671.344 1093.55 658.672 1093.64 645.429C1093.64 639.614 1092.62 633.845 1090.63 628.382C1096.58 630.894 1102.97 632.193 1109.42 632.205C1122.66 632.205 1135.35 626.966 1144.74 617.631C1154.13 608.296 1159.44 595.623 1159.53 582.38C1159.53 569.137 1154.29 556.431 1144.96 547.037C1135.63 537.643 1122.97 532.325 1109.73 532.242C1101.36 532.271 1093.12 534.427 1085.81 538.509C1088.22 532.536 1089.43 526.148 1089.38 519.707C1089.28 506.529 1084 493.92 1074.68 484.607C1065.36 475.294 1052.75 470.027 1039.58 469.945C1030.47 469.977 1021.53 472.497 1013.74 477.235C1005.95 481.973 999.595 488.748 995.366 496.832H934.8V467.313C942.904 463.171 949.728 456.899 954.539 449.17C959.35 441.441 961.967 432.546 962.108 423.442C962.108 410.144 956.829 397.391 947.433 387.989C938.036 378.586 925.291 373.304 912.002 373.304ZM720.033 507.737C727.884 503.646 734.512 497.548 739.242 490.062C743.973 482.576 746.638 473.97 746.965 465.119C748.159 465.947 749.415 466.68 750.723 467.313V520.397H720.033V507.862V507.737ZM878.431 514.004H889.141V609.893H866.468C861.264 609.876 856.215 611.67 852.188 614.97V543.272C852.183 541.371 851.952 539.478 851.499 537.632C863.111 533.299 872.706 524.814 878.431 513.816V514.004ZM934.8 543.335H995.366C998.733 549.696 1003.41 555.27 1009.08 559.692H960.542C954.484 559.709 948.679 562.124 944.396 566.411C940.112 570.697 937.698 576.506 937.682 582.568V647.81H929.101C932.788 643.671 934.818 638.314 934.8 632.769V543.147V543.335ZM756.485 566.336H806.591V602.373C802.789 599.772 798.294 598.375 793.689 598.361H768.636V586.391C768.637 582.239 767.507 578.166 765.365 574.61C763.224 571.053 760.154 568.149 756.485 566.21V566.336ZM983.466 605.193H1014.78C1008.49 609.746 1003.32 615.685 999.688 622.553H983.341V605.193H983.466Z" fill="#3772A3"/>
<path d="M944.307 741.058C945.07 896.127 946.139 1207.18 944.307 1210.85L513.751 1096.26V660.85L944.307 741.058Z" fill="#EBC13A"/>
<path d="M1180.2 1059.6L1184.78 628.767L944.307 741.058V1213.14L1180.2 1059.6Z" fill="#D7B032"/>
<path d="M908.4 1543.66C1212.15 1543.66 1193.18 1412.15 1193.18 1412.15L1192.84 1275.9H902.982V1234.99H1307.97C1307.97 1234.99 1502.34 1257 1502.34 950.999C1502.34 645 1332.69 655.851 1332.69 655.851H1231.45V797.847C1231.45 797.847 1236.9 967.227 1064.51 967.227C892.107 967.227 777.015 967.227 777.015 967.227C777.015 967.227 615.492 964.62 615.492 1123.08C615.492 1281.55 615.492 1385.1 615.492 1385.1C615.492 1385.1 590.969 1543.66 908.4 1543.66ZM1068.23 1452.04C1039.39 1452.04 1016.08 1428.77 1016.08 1399.97C1016.08 1371.18 1039.39 1347.91 1068.23 1347.91C1097.07 1347.91 1120.38 1371.18 1120.38 1399.97C1120.38 1428.77 1097.07 1452.04 1068.23 1452.04Z" fill="url(#paint1_linear_10:2)"/>
<defs>
<linearGradient id="paint0_linear_10:2" x1="316.644" y1="255.215" x2="907.341" y2="848.831" gradientUnits="userSpaceOnUse">
<stop stop-color="#387EB8"/>
<stop offset="1" stop-color="#366994"/>
</linearGradient>
<linearGradient id="paint1_linear_10:2" x1="784.77" y1="836.179" x2="1419.23" y2="1444.99" gradientUnits="userSpaceOnUse">
<stop stop-color="#FFE052"/>
<stop offset="1" stop-color="#FFC331"/>
</linearGradient>
</defs>
</svg>
