<svg width="1706" height="1695" viewBox="0 0 1706 1695" fill="none" xmlns="http://www.w3.org/2000/svg">
<path fill-rule="evenodd" clip-rule="evenodd" d="M625.375 266.99C592.226 276.812 573.697 289.234 563.537 299.275C553.715 308.983 550.382 317.671 549.137 322.838C548.482 325.557 548.346 327.572 548.326 328.553C548.319 328.883 548.326 329.085 548.328 329.146L548.533 332.072L548.621 367.609C552.303 379.564 558.82 390.834 568.112 400.293C584.147 416.616 605.226 424.347 625.375 424.347C645.525 424.347 666.605 416.616 682.64 400.291C697.928 384.728 705.701 364.264 705.701 343.913C705.701 323.559 697.926 303.095 682.638 287.532C669.321 273.976 652.526 266.347 635.674 264.149C632.094 265.067 628.662 266.016 625.375 266.99ZM548.644 376.665L549.024 529.366H407.362L404.478 529.162C404.444 529.159 404.405 529.157 404.363 529.154C404.313 529.15 404.257 529.147 404.196 529.143M548.644 376.665C561.176 405.915 590.046 427.273 625.375 427.273C672.974 427.273 708.84 388.506 708.84 343.913C708.84 305.001 681.534 270.531 642.958 262.374C673.902 255.207 715.151 250.293 770.048 250.293C908.834 250.293 962.246 285.007 982.705 309.152C993.114 321.437 996.998 333.174 998.466 341.367L1078.01 327.112M999.313 350.778C999.302 351.752 999.254 352.368 999.237 352.564L999.236 352.582L998.918 356.198V594.252C998.918 623.583 991.546 642.935 982.466 656.135C973.206 669.597 960.529 679.017 946.559 685.636C932.472 692.311 917.913 695.718 906.542 697.392C900.946 698.216 896.358 698.585 893.307 698.75C891.788 698.832 890.668 698.862 890.017 698.872C889.775 698.876 889.597 698.878 889.489 698.878C889.453 698.878 889.424 698.878 889.403 698.878L889.059 698.876L888.906 698.876H628.747C583.519 698.876 547.353 710.075 519.163 728.915C491.161 747.629 473.27 772.378 461.952 796.094C450.735 819.597 445.692 842.623 443.38 859.425M448.401 182.778C513.59 118.347 619.086 86.4984 770.048 86.4984C931.137 86.4984 1042.56 126.426 1107.67 203.265C1139.6 240.954 1153.97 280.577 1159.69 312.475C1162.5 328.169 1163.22 341.891 1163.09 352.69V352.692C1163.05 356.385 1162.91 359.779 1162.71 362.843V551.754H1318.12C1319.13 551.732 1320.2 551.717 1321.33 551.713C1325.17 551.698 1329.74 551.803 1334.94 552.14C1345.3 552.811 1358.43 554.42 1373.43 557.965C1403.64 565.105 1441.78 580.236 1478.73 611.164C1556 675.831 1601.19 785.249 1601.19 946.106C1601.19 1112.32 1546.65 1223.59 1456.91 1284C1415.65 1311.78 1374.56 1323.21 1344.01 1327.77C1335.77 1328.99 1328.14 1329.75 1321.26 1330.18L1321.33 1358.35C1321.52 1362.07 1321.61 1366.23 1321.52 1370.79C1321.28 1382.01 1319.94 1395.89 1316.18 1411.48C1308.43 1443.65 1291.04 1480.2 1257.69 1513.16C1192.5 1577.6 1087 1609.44 936.039 1609.44C774.95 1609.44 663.525 1569.52 598.419 1492.68C566.485 1454.99 552.115 1415.37 546.399 1383.47C543.586 1367.77 542.868 1354.05 542.995 1343.25C543.038 1339.56 543.18 1336.16 543.378 1333.1V1144.19H387.967C386.958 1144.21 385.888 1144.23 384.756 1144.23H384.753C380.914 1144.24 376.343 1144.14 371.144 1143.8C360.789 1143.13 347.653 1141.52 332.655 1137.98C302.45 1130.84 264.307 1115.71 227.353 1084.78C150.084 1020.11 104.9 910.693 104.9 749.836C104.9 583.619 159.434 472.349 249.175 411.942C290.437 384.166 331.529 372.728 362.08 368.177C370.316 366.95 377.947 366.197 384.825 365.764L384.755 337.595C384.563 333.874 384.476 329.71 384.571 325.152C384.804 313.931 386.148 300.055 389.905 284.462C397.659 252.287 415.051 215.74 448.401 182.778ZM1301.79 1166.79L1301.87 1166.8L1301.89 1166.8C1302.51 1166.84 1303.68 1166.89 1305.31 1166.89C1308.59 1166.89 1313.65 1166.69 1319.87 1165.76C1332.38 1163.9 1348.94 1159.24 1365.45 1148.12C1396.36 1127.31 1437.4 1076.58 1437.4 946.106C1437.4 814.137 1400.91 759.617 1373.61 736.774C1359.47 724.94 1345.67 719.71 1335.76 717.367C1330.77 716.189 1326.8 715.751 1324.35 715.592C1323.13 715.513 1322.31 715.505 1321.96 715.506C1321.85 715.507 1321.79 715.508 1321.77 715.508L1320.48 715.549H1264.71V807.053L1264.71 807.106L1264.72 807.985C1264.73 808.431 1264.73 808.908 1264.73 809.412L1264.73 809.425C1264.73 810.983 1264.69 813.098 1264.59 815.691C1264.38 820.866 1263.88 828.022 1262.71 836.517M1100.92 770.303C1074.92 800.332 1044.77 820.241 1017.5 833.272H1077.34C1086.33 833.272 1091.5 832.192 1093.89 831.515C1094.54 831.332 1095.03 831.164 1095.39 831.029C1095.62 830.654 1095.94 830.092 1096.32 829.299C1097.14 827.578 1098 825.287 1098.77 822.47C1099.53 819.676 1100.08 816.821 1100.44 814.193C1100.76 811.905 1100.88 810.176 1100.92 809.323V770.303ZM1096.18 830.687C1096.18 830.687 1096.15 830.702 1096.1 830.729C1096.15 830.7 1096.18 830.687 1096.18 830.687ZM900.554 833.272L902.118 862.307C898.432 862.506 895.273 862.603 892.725 862.645C892.142 862.654 891.589 862.661 891.069 862.666C890.452 862.671 889.88 862.673 889.355 862.673L889.214 862.673L889.073 862.672L888.752 862.671V833.272H892.24H900.554ZM888.556 833.272L888.752 780.773V833.272H888.556ZM817.497 833.272H888.556L888.446 862.67L888.595 862.671H817.535L817.647 833.272L817.497 833.272ZM817.335 833.272L817.019 833.27L816.876 833.27L816.732 833.27C815.763 833.269 814.636 833.277 813.361 833.298C810.816 833.34 807.657 833.437 803.97 833.635M817.335 833.272V862.671H805.534L803.97 833.635M688.587 862.671H628.747C619.755 862.671 614.584 863.751 612.195 864.427C611.548 864.611 611.054 864.778 610.694 864.914C610.465 865.289 610.149 865.851 609.77 866.644C608.949 868.365 608.088 870.655 607.318 873.472C606.554 876.267 606.004 879.122 605.643 881.75C605.328 884.038 605.208 885.766 605.166 886.619V925.64C631.164 895.611 661.316 875.701 688.587 862.671ZM609.911 865.256C609.911 865.256 609.934 865.241 609.99 865.213C609.94 865.242 609.911 865.256 609.911 865.256ZM803.97 833.635C796.639 834.03 786.972 834.842 775.694 836.502L779.545 862.671H805.534L803.97 833.635ZM817.335 862.671H817.535L817.335 915.169V862.671ZM1080.81 359.789L1162.39 366.956L1162.4 366.935L1162.4 366.917L1081.26 359.789M404.196 529.143C403.575 529.106 402.409 529.052 400.778 529.051C397.496 529.048 392.439 529.256 386.215 530.184C373.707 532.047 357.146 536.707 340.636 547.821C309.725 568.628 268.69 619.365 268.69 749.836C268.69 881.805 305.178 936.325 332.472 959.168C346.612 971.002 360.419 976.232 370.332 978.575M1262.71 836.517C1260.4 853.319 1255.35 876.346 1244.14 899.848C1232.82 923.565 1214.93 948.313 1186.92 967.028C1158.73 985.868 1122.57 997.067 1077.34 997.067H817.18L817.024 997.066L816.684 997.064C816.663 997.064 816.633 997.064 816.595 997.064C816.551 997.065 816.494 997.065 816.427 997.066C816.331 997.066 816.212 997.068 816.07 997.07M1157.44 1319.28C1144.91 1290.03 1116.05 1268.67 1080.71 1268.67C1033.11 1268.67 997.247 1307.44 997.247 1352.03C997.247 1390.94 1024.55 1425.41 1063.13 1433.57M1157.44 1319.28L1157.06 1166.58H1298.72L1301.6 1166.78C1301.66 1166.78 1301.72 1166.79 1301.78 1166.79M1157.47 1328.33C1153.78 1316.38 1147.27 1305.11 1137.98 1295.65C1121.94 1279.33 1100.86 1271.6 1080.71 1271.6C1060.56 1271.6 1039.48 1279.33 1023.44 1295.66C1008.16 1311.22 1000.39 1331.68 1000.39 1352.03C1000.39 1372.38 1008.16 1392.85 1023.45 1408.41C1036.76 1421.96 1053.56 1429.6 1070.41 1431.79C1073.99 1430.88 1077.42 1429.93 1080.71 1428.95C1113.86 1419.13 1132.39 1406.71 1142.55 1396.67C1152.37 1386.96 1155.7 1378.27 1156.95 1373.11C1157.6 1370.39 1157.74 1368.37 1157.76 1367.39C1157.77 1367.12 1157.76 1366.94 1157.76 1366.85C1157.76 1366.82 1157.76 1366.81 1157.76 1366.8L1157.55 1363.87L1157.47 1328.33ZM443.38 859.425C442.212 867.918 441.707 875.074 441.497 880.25L443.38 859.425ZM441.497 880.252C441.392 882.842 441.36 884.955 441.358 886.515L441.497 880.252ZM441.375 888.721V980.394H385.6L384.31 980.434C384.293 980.435 384.231 980.436 384.128 980.437M441.362 887.733L441.364 888.171L441.375 888.721M441.358 886.523C441.357 886.959 441.358 887.363 441.362 887.733L441.358 886.523ZM370.332 978.575C375.314 979.753 379.285 980.192 381.736 980.351C382.951 980.429 383.769 980.438 384.125 980.437" fill="#3E5BBE"/>
<path d="M357.027 431.572L588.91 203.363H961.58L1122.61 323.909C1110.34 405.499 1086.54 576.778 1089.48 609.169C1092.43 641.56 1370.44 694.441 1509.08 716.832C1499.88 841.979 1481.48 1099.08 1481.48 1126.32C1481.48 1153.56 1360.63 1233.37 1300.2 1269.87L1203.59 1461.27L1035.19 1485.2L757.302 1461.27L588.91 1092.27L280.653 1008.53L172.992 696.588L357.027 431.572Z" fill="#3E5BBE"/>
<path fill-rule="evenodd" clip-rule="evenodd" d="M471.648 348.245L471.928 460.68H415.258C414.914 460.655 414.547 460.631 414.159 460.607C412.027 460.478 409.224 460.368 405.845 460.365C399.107 460.36 389.947 460.783 379.151 462.392C357.622 465.599 328.795 473.648 299.909 493.092C239.583 533.7 191.799 614.703 191.799 763.048C191.799 909.461 232.635 991.43 284.916 1035.19C310.464 1056.57 336.438 1066.75 356.497 1071.49C366.487 1073.85 375.041 1074.87 381.443 1075.29C384.652 1075.5 387.348 1075.55 389.445 1075.54C390.384 1075.54 391.205 1075.52 391.902 1075.5H528.274V900.779L528.259 900.353L528.259 900.34L528.259 900.325L528.258 900.283C528.257 900.204 528.256 900.066 528.257 899.872C528.258 899.299 528.27 898.245 528.329 896.78C528.449 893.833 528.755 889.325 529.515 883.799C531.068 872.515 534.342 858.249 540.865 844.581C547.282 831.134 556.432 819.066 569.672 810.217C582.682 801.522 602.535 793.985 633.75 793.985H893.756L894.383 793.987C894.908 793.987 895.575 793.983 896.375 793.97C897.974 793.944 900.113 793.88 902.716 793.74C907.907 793.46 915.034 792.87 923.472 791.628C940.119 789.177 963.077 784.018 986.629 772.858C1010.35 761.617 1035.66 743.798 1054.94 715.762C1074.45 687.399 1085.82 651.441 1085.82 607.464V373L1085.82 372.961C1086.01 370.844 1086.17 368.145 1086.21 364.946C1086.28 358.566 1085.86 350.062 1084.08 340.133C1080.49 320.087 1071.36 294.407 1050.19 269.42C1007.41 218.928 924.989 181.607 775.052 181.607C632.732 181.607 553.605 212.101 510.973 254.238C489.387 275.573 479.025 298.19 474.525 316.861C472.319 326.017 471.579 333.963 471.452 340.064C471.389 343.12 471.478 345.738 471.62 347.846L471.648 348.245ZM630.379 355.661C631.376 355.661 631.948 356.377 631.948 357.124C631.948 357.871 631.376 358.587 630.379 358.587C629.381 358.587 628.81 357.871 628.81 357.124C628.81 356.377 629.381 355.661 630.379 355.661Z" fill="#4161D6"/>
<path fill-rule="evenodd" clip-rule="evenodd" d="M1244.47 1374.52L1244.45 1374.12L1244.17 1261.69H1300.84C1301.07 1261.7 1301.3 1261.72 1301.55 1261.73C1301.68 1261.74 1301.81 1261.75 1301.94 1261.76C1304.07 1261.89 1306.87 1262 1310.25 1262C1316.99 1262.01 1326.15 1261.58 1336.94 1259.97C1358.47 1256.77 1387.3 1248.72 1416.19 1229.27C1476.51 1188.67 1524.3 1107.66 1524.3 959.318C1524.3 812.905 1483.46 730.935 1431.18 687.18C1405.63 665.8 1379.66 655.619 1359.6 650.877C1349.61 648.516 1341.05 647.492 1334.65 647.077C1331.44 646.869 1328.75 646.813 1326.65 646.821C1325.71 646.824 1324.89 646.841 1324.19 646.863H1187.82V821.587L1187.84 822.082C1187.84 822.161 1187.84 822.299 1187.84 822.493C1187.84 823.066 1187.82 824.121 1187.77 825.586C1187.65 828.533 1187.34 833.04 1186.58 838.566C1185.03 849.85 1181.75 864.117 1175.23 877.785C1168.81 891.231 1159.66 903.299 1146.42 912.148C1133.41 920.843 1113.56 928.381 1082.34 928.381H822.339L821.712 928.378C821.187 928.378 820.52 928.382 819.719 928.396C818.12 928.422 815.981 928.485 813.378 928.625C808.188 928.905 801.061 929.496 792.623 930.738C775.976 933.188 753.018 938.348 729.465 949.508C705.743 960.748 680.437 978.568 661.152 1006.6C641.642 1034.97 630.278 1070.92 630.278 1114.9V1349.36L630.274 1349.4C630.088 1351.52 629.925 1354.22 629.888 1357.42C629.814 1363.8 630.234 1372.3 632.014 1382.23C635.606 1402.28 644.732 1427.96 665.904 1452.95C708.686 1503.44 791.106 1540.76 941.043 1540.76C1083.36 1540.76 1162.49 1510.26 1205.12 1468.13C1226.71 1446.79 1237.07 1424.18 1241.57 1405.5C1243.78 1396.35 1244.52 1388.4 1244.64 1382.3C1244.71 1379.25 1244.62 1376.63 1244.47 1374.52ZM1085.72 1366.7C1084.72 1366.7 1084.15 1365.99 1084.15 1365.24C1084.15 1364.49 1084.72 1363.78 1085.72 1363.78C1086.71 1363.78 1087.28 1364.49 1087.28 1365.24C1087.28 1365.99 1086.71 1366.7 1085.72 1366.7Z" fill="#4161D6"/>
<path d="M775.052 226.249C500.107 226.249 517.276 345.153 517.276 345.153L517.583 468.336H779.956V505.321H413.369C413.369 505.321 237.432 485.424 237.432 762.08C237.432 1038.74 390.994 1028.93 390.994 1028.93H482.641V900.547C482.641 900.547 477.701 747.408 633.75 747.408C789.8 747.408 893.978 747.408 893.978 747.408C893.978 747.408 1040.18 749.765 1040.18 606.497C1040.18 463.228 1040.18 369.606 1040.18 369.606C1040.18 369.606 1062.38 226.249 775.052 226.249ZM630.379 309.084C656.483 309.084 677.581 330.125 677.581 356.157C677.581 382.189 656.483 403.229 630.379 403.229C604.275 403.229 583.176 382.189 583.176 356.157C583.176 330.125 604.275 309.084 630.379 309.084Z" fill="white"/>
<path fill-rule="evenodd" clip-rule="evenodd" d="M893.978 747.408H633.75C477.701 747.408 482.641 900.547 482.641 900.547V1028.93H390.994C390.994 1028.93 237.432 1038.74 237.432 762.08C237.432 485.424 413.369 505.321 413.369 505.321H779.956V468.336H517.583L517.276 345.153C517.276 345.153 500.107 226.249 775.052 226.249C1062.38 226.249 1040.18 369.606 1040.18 369.606V606.497C1040.18 749.765 893.978 747.408 893.978 747.408ZM467.076 454.875L466.809 347.457C466.803 347.373 466.797 347.289 466.791 347.204C466.64 344.964 466.546 342.204 466.613 338.997C466.746 332.593 467.521 324.297 469.82 314.761C474.511 295.293 485.289 271.853 507.569 249.831C551.534 206.378 632.218 175.803 775.052 175.803C925.654 175.803 1009.78 213.28 1053.88 265.326C1075.69 291.063 1085.13 317.566 1088.85 338.313C1090.69 348.582 1091.12 357.394 1091.05 364.035C1091.01 367.28 1090.85 370.042 1090.66 372.244V606.497C1090.66 651.34 1079.06 688.278 1058.93 717.535C1039.05 746.431 1013 764.748 988.703 776.261C964.59 787.687 941.136 792.95 924.177 795.446C915.571 796.713 908.294 797.317 902.977 797.603C900.31 797.747 898.11 797.812 896.455 797.839C895.989 797.847 895.566 797.852 895.187 797.854C894.891 797.856 894.623 797.857 894.381 797.857C894.138 797.857 893.923 797.856 893.736 797.855H633.75C603.362 797.855 584.474 805.176 572.362 813.271C559.996 821.536 551.362 832.854 545.233 845.696C538.987 858.783 535.817 872.533 534.31 883.491C533.574 888.842 533.279 893.193 533.165 896.008C533.108 897.407 533.097 898.398 533.097 898.913C533.096 899.048 533.097 899.149 533.097 899.216L533.114 899.734V1079.37H391.977C391.254 1079.39 390.414 1079.41 389.463 1079.41C387.263 1079.42 384.457 1079.36 381.13 1079.15C374.494 1078.72 365.669 1077.66 355.383 1075.23C334.723 1070.34 308.03 1059.87 281.809 1037.93C228.054 992.939 186.959 909.351 186.959 762.08C186.959 612.674 235.146 529.888 297.205 488.113C326.822 468.177 356.374 459.927 378.438 456.64C389.504 454.991 398.906 454.555 405.849 454.56C409.331 454.563 412.231 454.677 414.452 454.812C414.793 454.832 415.117 454.854 415.426 454.875H467.076ZM1090.66 369.607C1090.66 369.606 1090.66 369.606 1040.18 369.606L1090.66 369.607C1090.66 369.607 1090.66 369.607 1090.66 369.607ZM627.108 356.157C627.108 358.091 628.713 359.531 630.379 359.531C632.044 359.531 633.649 358.091 633.649 356.157C633.649 354.222 632.044 352.783 630.379 352.783C628.713 352.783 627.108 354.222 627.108 356.157ZM677.581 356.157C677.581 330.125 656.483 309.084 630.379 309.084C604.275 309.084 583.176 330.125 583.176 356.157C583.176 382.189 604.275 403.229 630.379 403.229C656.483 403.229 677.581 382.189 677.581 356.157Z" fill="#00EFE3"/>
<path d="M865.316 726.672V591.999L556.438 668.659L865.316 726.672Z" fill="#1C3074"/>
<path d="M865.317 591.999L1163.83 639.652L946.164 741.176L865.317 726.672V591.999Z" fill="#0C1639"/>
<path d="M838.89 909.845L789.352 798.099C788.468 796.129 788.019 793.991 788.036 791.832V636.09H755.366C753.387 636.099 751.426 635.715 749.597 634.962C747.767 634.209 746.105 633.102 744.706 631.703C743.306 630.305 742.198 628.643 741.445 626.815C740.691 624.986 740.308 623.026 740.316 621.049V601.432H700.811C697.73 609.325 692.345 616.11 685.356 620.904C678.367 625.699 670.097 628.283 661.62 628.319C650.477 628.319 639.791 623.895 631.912 616.02C624.033 608.145 619.607 597.465 619.607 586.328C619.623 575.197 624.055 564.526 631.93 556.655C639.806 548.783 650.482 544.354 661.62 544.337C670.102 544.387 678.374 546.983 685.362 551.789C692.35 556.594 697.733 563.387 700.811 571.287H755.366C759.352 571.303 763.17 572.893 765.989 575.71C768.808 578.528 770.399 582.344 770.415 586.328V606.007H803.085C807.071 606.024 810.89 607.614 813.708 610.431C816.527 613.248 818.118 617.065 818.135 621.049V788.824L825.471 805.307L823.966 793.963C823.966 793.211 823.966 792.584 823.966 791.957V558.313H706.706C702.719 558.297 698.901 556.707 696.082 553.89C693.263 551.072 691.673 547.256 691.656 543.272V532.931H643.874C640.784 540.836 635.39 547.631 628.391 552.436C621.392 557.241 613.111 559.834 604.62 559.88C593.482 559.864 582.806 555.434 574.93 547.563C567.055 539.692 562.623 529.021 562.607 517.89C562.623 506.758 567.055 496.087 574.93 488.216C582.806 480.345 593.482 475.915 604.62 475.899C613.111 475.945 621.392 478.538 628.391 483.343C635.39 488.148 640.784 494.943 643.874 502.848H691.656C683.752 499.771 676.955 494.392 672.148 487.407C667.34 480.423 664.742 472.155 664.692 463.678C664.709 452.546 669.141 441.875 677.016 434.004C684.892 426.133 695.568 421.703 706.706 421.687C712.223 421.687 717.686 422.773 722.783 424.883C727.881 426.993 732.512 430.086 736.413 433.986C740.315 437.885 743.409 442.514 745.521 447.608C747.632 452.703 748.719 458.163 748.719 463.678C748.682 472.15 746.098 480.416 741.3 487.401C736.503 494.386 729.715 499.768 721.818 502.848V528.356H768.158V462.299C760.326 459.222 753.59 453.882 748.81 446.961C744.03 440.04 741.422 431.851 741.319 423.442C741.336 412.31 745.768 401.639 753.643 393.768C761.519 385.897 772.195 381.468 783.333 381.451C794.475 381.451 805.161 385.875 813.04 393.75C820.919 401.625 825.346 412.305 825.346 423.442C825.313 431.923 822.722 440.198 817.912 447.186C813.102 454.174 806.296 459.55 798.382 462.612V528.544H824.719C817.899 524.986 812.185 519.629 808.194 513.056C804.204 506.482 802.09 498.942 802.082 491.254C802.098 480.122 806.53 469.451 814.405 461.58C822.281 453.709 832.957 449.279 844.095 449.263C852.577 449.313 860.849 451.909 867.837 456.714C874.825 461.519 880.208 468.312 883.286 476.212H906.864V462.299C898.962 459.281 892.146 453.967 887.296 447.041C882.445 440.115 879.781 431.895 879.649 423.442C879.666 412.31 884.098 401.639 891.973 393.768C899.848 385.897 910.525 381.468 921.663 381.451C932.8 381.468 943.477 385.897 951.352 393.768C959.227 401.639 963.659 412.31 963.676 423.442C963.626 431.919 961.028 440.187 956.221 447.171C951.413 454.156 944.616 459.535 936.712 462.612V504.916H1010.27C1013.35 497.023 1018.73 490.239 1025.72 485.444C1032.71 480.649 1040.98 478.066 1049.46 478.03C1060.59 478.03 1071.27 482.445 1079.14 490.306C1087.02 498.168 1091.45 508.832 1091.47 519.958C1091.47 531.1 1087.05 541.787 1079.17 549.672C1071.29 557.557 1060.61 561.995 1049.46 562.011C1040.98 561.961 1032.7 559.365 1025.72 554.56C1018.73 549.755 1013.35 542.962 1010.27 535.062H936.712V632.33C936.712 636.319 935.126 640.145 932.304 642.966C929.482 645.787 925.654 647.371 921.663 647.371H891.187V791.957C891.283 792.916 891.283 793.882 891.187 794.84L890.372 799.29L895.639 788.51V670.498C895.623 666.503 897.19 662.664 899.999 659.821C902.808 656.979 906.629 655.364 910.626 655.331H955.587V582.38C955.587 578.391 957.172 574.565 959.994 571.744C962.817 568.923 966.645 567.338 970.636 567.338H1080.75C1083.83 559.439 1089.21 552.646 1096.2 547.84C1103.19 543.035 1111.46 540.439 1119.94 540.389C1130.99 540.537 1141.54 545.025 1149.31 552.882C1157.07 560.739 1161.44 571.334 1161.45 582.38C1161.45 593.516 1157.02 604.197 1149.15 612.072C1141.27 619.947 1130.58 624.371 1119.44 624.371C1110.95 624.338 1102.67 621.749 1095.68 616.941C1088.69 612.133 1083.31 605.331 1080.25 597.421H985.435V630.262H1014.59C1017.68 622.357 1023.08 615.562 1030.08 610.757C1037.07 605.952 1045.36 603.358 1053.85 603.312C1064.98 603.329 1075.65 607.76 1083.51 615.633C1091.38 623.506 1095.8 634.177 1095.8 645.303C1095.8 656.429 1091.38 667.1 1083.51 674.973C1075.65 682.846 1064.98 687.277 1053.85 687.294C1045.35 687.257 1037.07 684.667 1030.07 679.86C1023.07 675.054 1017.68 668.254 1014.59 660.345H985.435V670.372C985.435 674.362 983.849 678.187 981.027 681.008C978.204 683.829 974.377 685.414 970.385 685.414H925.425V791.957C925.434 794.257 924.919 796.529 923.92 798.601L869.177 909.845H838.89ZM856.824 812.639L861.088 790.516V632.581C861.138 628.624 862.745 624.846 865.562 622.066C868.379 619.286 872.179 617.727 876.138 617.727H906.613V506.17H883.035C880.317 513.183 875.774 519.344 869.877 524.015C863.979 528.687 856.94 531.7 849.488 532.743C850.926 534.103 852.082 535.732 852.889 537.539C853.696 539.346 854.138 541.294 854.191 543.272V791.017L856.824 812.639ZM1053.85 633.583C1050.7 633.583 1047.68 634.829 1045.44 637.049C1043.21 639.269 1041.95 642.281 1041.93 645.429C1041.93 648.587 1043.19 651.616 1045.42 653.849C1047.66 656.082 1050.69 657.336 1053.85 657.336C1057 657.32 1060.01 656.058 1062.23 653.827C1064.45 651.595 1065.7 648.576 1065.7 645.429C1065.7 643.873 1065.39 642.333 1064.8 640.896C1064.2 639.459 1063.33 638.153 1062.23 637.053C1061.13 635.953 1059.82 635.08 1058.38 634.485C1056.94 633.89 1055.4 633.583 1053.85 633.583ZM661.62 574.483C660.055 574.483 658.506 574.791 657.06 575.389C655.615 575.988 654.302 576.865 653.195 577.971C652.089 579.077 651.211 580.389 650.613 581.834C650.014 583.279 649.706 584.827 649.706 586.391C649.706 587.955 650.014 589.503 650.613 590.948C651.211 592.393 652.089 593.705 653.195 594.811C654.302 595.917 655.615 596.794 657.06 597.392C658.506 597.991 660.055 598.299 661.62 598.299C664.78 598.299 667.81 597.044 670.044 594.811C672.279 592.578 673.534 589.549 673.534 586.391C673.534 583.233 672.279 580.204 670.044 577.971C667.81 575.738 664.78 574.483 661.62 574.483ZM1119.69 570.535C1116.54 570.535 1113.52 571.781 1111.29 574C1109.05 576.22 1107.79 579.233 1107.77 582.38C1107.79 585.533 1109.05 588.552 1111.28 590.782C1113.51 593.011 1116.53 594.271 1119.69 594.288C1122.85 594.288 1125.88 593.033 1128.11 590.8C1130.35 588.567 1131.6 585.538 1131.6 582.38C1131.59 579.233 1130.32 576.22 1128.09 574C1125.86 571.781 1122.84 570.535 1119.69 570.535ZM1037.79 521.838C1038.16 524.674 1039.54 527.28 1041.69 529.172C1043.84 531.063 1046.6 532.109 1049.46 532.116C1052.62 532.116 1055.65 530.862 1057.88 528.629C1060.12 526.395 1061.37 523.367 1061.37 520.208C1061.36 517.061 1060.09 514.048 1057.86 511.829C1055.63 509.609 1052.61 508.363 1049.46 508.363C1046.6 508.384 1043.85 509.435 1041.7 511.323C1039.56 513.212 1038.17 515.811 1037.79 518.642C1037.84 519.163 1037.84 519.687 1037.79 520.208C1037.83 520.751 1037.83 521.295 1037.79 521.838ZM604.494 505.982C601.34 505.998 598.319 507.258 596.088 509.488C593.857 511.717 592.597 514.736 592.58 517.89C592.597 521.043 593.857 524.062 596.088 526.291C598.319 528.521 601.34 529.781 604.494 529.797C606.059 529.797 607.608 529.489 609.054 528.891C610.499 528.293 611.813 527.415 612.919 526.31C614.025 525.204 614.903 523.891 615.502 522.446C616.1 521.002 616.409 519.453 616.409 517.89C616.409 516.326 616.1 514.777 615.502 513.333C614.903 511.888 614.025 510.575 612.919 509.469C611.813 508.364 610.499 507.487 609.054 506.888C607.608 506.29 606.059 505.982 604.494 505.982ZM843.844 479.032C840.689 479.049 837.668 480.309 835.438 482.538C833.207 484.768 831.946 487.787 831.93 490.94C831.93 494.098 833.185 497.127 835.419 499.36C837.654 501.594 840.684 502.848 843.844 502.848C847.004 502.848 850.034 501.594 852.269 499.36C854.503 497.127 855.758 494.098 855.758 490.94C855.742 487.787 854.481 484.768 852.25 482.538C850.02 480.309 846.999 479.049 843.844 479.032ZM706.58 451.644C703.431 451.661 700.417 452.923 698.196 455.154C695.975 457.386 694.729 460.405 694.729 463.552C694.729 466.7 695.975 469.719 698.196 471.95C700.417 474.182 703.431 475.444 706.58 475.46C709.735 475.444 712.756 474.184 714.987 471.954C717.217 469.725 718.478 466.705 718.494 463.552C718.494 460.394 717.239 457.365 715.005 455.132C712.77 452.899 709.74 451.644 706.58 451.644ZM921.663 411.221C918.503 411.221 915.472 412.475 913.238 414.708C911.004 416.941 909.748 419.97 909.748 423.128C909.765 426.281 911.025 429.301 913.256 431.53C915.487 433.76 918.508 435.02 921.663 435.036C924.817 435.02 927.838 433.76 930.069 431.53C932.3 429.301 933.56 426.281 933.577 423.128C933.577 419.97 932.321 416.941 930.087 414.708C927.853 412.475 924.822 411.221 921.663 411.221ZM783.082 411.221C779.927 411.237 776.906 412.497 774.675 414.726C772.445 416.956 771.184 419.975 771.168 423.128C771.184 426.281 772.445 429.301 774.675 431.53C776.906 433.76 779.927 435.02 783.082 435.036C786.237 435.02 789.257 433.76 791.488 431.53C793.719 429.301 794.979 426.281 794.996 423.128C794.996 419.97 793.741 416.941 791.506 414.708C789.272 412.475 786.242 411.221 783.082 411.221Z" fill="white"/>
<path d="M923.167 388.972C927.679 388.98 932.145 389.879 936.308 391.618C940.471 393.357 944.249 395.902 947.425 399.105C950.601 402.308 953.112 406.108 954.814 410.284C956.516 414.461 957.375 418.932 957.342 423.442C957.32 431.238 954.635 438.793 949.732 444.856C944.828 450.919 938.001 455.127 930.378 456.784V513.189H1017.6C1019.22 505.542 1023.42 498.683 1029.49 493.756C1035.56 488.828 1043.14 486.131 1050.96 486.115C1060.02 486.115 1068.7 489.705 1075.11 496.097C1081.51 502.489 1085.12 511.161 1085.14 520.209C1085.14 529.273 1081.54 537.968 1075.13 544.383C1068.72 550.799 1060.03 554.411 1050.96 554.428C1043.16 554.406 1035.6 551.723 1029.54 546.822C1023.47 541.921 1019.26 535.097 1017.6 527.479H930.378V632.581C930.378 634.492 929.619 636.326 928.266 637.677C926.914 639.029 925.08 639.788 923.167 639.788H884.791V791.958C884.856 792.415 884.856 792.879 884.791 793.336L873.002 855.257L904.669 790.328V670.498C904.669 668.586 905.429 666.753 906.781 665.401C908.133 664.05 909.967 663.29 911.88 663.29H964.616V582.38C964.632 580.474 965.397 578.65 966.746 577.302C968.095 575.954 969.92 575.189 971.827 575.173H1087.77C1089.44 567.549 1093.66 560.724 1099.74 555.824C1105.82 550.924 1113.39 548.242 1121.19 548.223C1130.22 548.289 1138.85 551.915 1145.22 558.312C1151.58 564.709 1155.16 573.359 1155.18 582.38C1155.16 591.434 1151.56 600.112 1145.15 606.514C1138.75 612.916 1130.06 616.52 1121.01 616.537C1113.19 616.529 1105.62 613.852 1099.54 608.95C1093.46 604.048 1089.24 597.216 1087.58 589.587H979.038V638.221H1021.93C1023.62 630.638 1027.85 623.857 1033.91 618.993C1039.98 614.129 1047.51 611.473 1055.29 611.46C1064.35 611.477 1073.03 615.081 1079.44 621.483C1085.84 627.885 1089.45 636.563 1089.46 645.617C1089.46 654.676 1085.86 663.364 1079.45 669.769C1073.05 676.175 1064.35 679.773 1055.29 679.773C1047.49 679.763 1039.92 677.084 1033.85 672.181C1027.78 667.279 1023.58 660.448 1021.93 652.824H979.038V670.686C979.047 671.635 978.866 672.576 978.507 673.454C978.147 674.332 977.616 675.13 976.945 675.801C976.274 676.472 975.475 677.002 974.597 677.362C973.718 677.721 972.776 677.902 971.827 677.893H919.091V791.958C919.094 793.067 918.837 794.162 918.339 795.154L865.791 902.011H845.474L797.755 794.903C797.331 793.98 797.117 792.974 797.128 791.958V628.256H756.557C754.644 628.256 752.81 627.497 751.458 626.145C750.105 624.794 749.345 622.961 749.345 621.049V593.598H696.233C694.561 601.215 690.336 608.033 684.258 612.923C678.18 617.812 670.613 620.48 662.811 620.485C653.807 620.403 645.197 616.778 638.848 610.397C632.498 604.015 628.919 595.391 628.887 586.391C628.903 577.337 632.509 568.659 638.915 562.257C645.32 555.855 654.003 552.251 663.062 552.234C670.87 552.253 678.438 554.935 684.515 559.835C690.592 564.735 694.814 571.56 696.484 579.184H756.808C757.755 579.184 758.692 579.37 759.567 579.732C760.442 580.094 761.237 580.625 761.907 581.295C762.576 581.964 763.107 582.758 763.47 583.633C763.832 584.507 764.019 585.445 764.019 586.391V613.904H804.59C806.497 613.921 808.322 614.685 809.671 616.033C811.019 617.382 811.784 619.205 811.801 621.112V790.328L841.649 858.14L833.246 793.211C833.215 792.898 833.215 792.584 833.246 792.271V550.48H708.085C706.177 550.463 704.353 549.699 703.004 548.35C701.655 547.002 700.89 545.179 700.874 543.272V525.097H639.359C637.712 532.721 633.505 539.551 627.436 544.454C621.367 549.357 613.802 552.036 605.999 552.046C596.973 551.98 588.338 548.354 581.973 541.958C575.609 535.561 572.029 526.911 572.012 517.89C572.029 508.836 575.635 500.158 582.04 493.756C588.446 487.354 597.129 483.75 606.187 483.733C613.994 483.732 621.564 486.407 627.635 491.311C633.707 496.216 637.911 503.053 639.547 510.682H701.062V496.894C693.439 495.238 686.612 491.03 681.708 484.967C676.805 478.903 674.12 471.349 674.098 463.552C674.196 454.585 677.813 446.015 684.169 439.686C690.525 433.357 699.113 429.774 708.085 429.709C717.149 429.709 725.841 433.308 732.25 439.713C738.659 446.119 742.26 454.807 742.26 463.866C742.249 471.665 739.569 479.226 734.663 485.291C729.758 491.357 722.924 495.562 715.296 497.208V536.253H777.375V456.658C769.774 455.007 762.962 450.817 758.061 444.78C753.16 438.742 750.462 431.216 750.411 423.442C750.378 418.932 751.238 414.461 752.939 410.284C754.641 406.108 757.152 402.308 760.328 399.105C763.504 395.902 767.282 393.357 771.445 391.618C775.608 389.879 780.074 388.98 784.586 388.972C789.098 388.98 793.564 389.879 797.727 391.618C801.891 393.357 805.669 395.902 808.845 399.105C812.02 402.308 814.532 406.108 816.233 410.284C817.935 414.461 818.794 418.932 818.761 423.442C818.739 431.238 816.055 438.793 811.151 444.856C806.248 450.919 799.42 455.127 791.798 456.784V536.253H840.395C841.352 536.211 842.308 536.36 843.208 536.692C844.107 537.023 844.93 537.531 845.631 538.184C846.332 538.838 846.895 539.624 847.288 540.498C847.681 541.372 847.896 542.315 847.92 543.272V791.519L857.137 861.65L870.368 791.268V632.581C870.385 630.674 871.15 628.851 872.499 627.503C873.848 626.154 875.672 625.39 877.58 625.373H915.956V498.148H878.708C877.062 505.771 872.854 512.602 866.786 517.505C860.717 522.407 853.152 525.087 845.349 525.097C836.285 525.097 827.592 521.498 821.183 515.093C814.774 508.687 811.174 499.999 811.174 490.94C811.19 481.887 814.796 473.208 821.202 466.806C827.607 460.404 836.29 456.8 845.349 456.784C853.149 456.806 860.708 459.489 866.774 464.39C872.841 469.291 877.051 476.115 878.708 483.733H915.956V456.47C908.38 454.836 901.586 450.678 896.686 444.676C891.787 438.675 889.074 431.187 888.992 423.442C888.951 418.93 889.804 414.455 891.503 410.274C893.202 406.094 895.713 402.292 898.89 399.087C902.068 395.882 905.849 393.338 910.016 391.601C914.183 389.865 918.653 388.972 923.167 388.972ZM923.167 442.87C928.347 442.855 933.315 440.813 937.007 437.181C940.699 433.55 942.821 428.618 942.92 423.442C942.953 420.825 942.467 418.228 941.49 415.8C940.513 413.373 939.064 411.163 937.227 409.298C935.391 407.433 933.202 405.95 930.789 404.936C928.376 403.921 925.785 403.395 923.167 403.387C920.547 403.386 917.952 403.907 915.535 404.919C913.118 405.93 910.926 407.413 909.088 409.279C907.25 411.146 905.801 413.359 904.827 415.791C903.853 418.222 903.373 420.823 903.415 423.442C903.513 428.618 905.635 433.55 909.327 437.181C913.019 440.813 917.987 442.855 923.167 442.87ZM784.586 442.87C789.766 442.855 794.734 440.813 798.426 437.181C802.118 433.55 804.241 428.618 804.339 423.442C804.38 420.823 803.9 418.222 802.926 415.791C801.952 413.359 800.504 411.146 798.665 409.279C796.827 407.413 794.636 405.93 792.218 404.919C789.801 403.907 787.207 403.386 784.586 403.387C781.966 403.386 779.371 403.907 776.954 404.919C774.537 405.93 772.346 407.413 770.507 409.279C768.669 411.146 767.221 413.359 766.247 415.791C765.273 418.222 764.792 420.823 764.834 423.442C764.932 428.618 767.055 433.55 770.747 437.181C774.439 440.813 779.406 442.855 784.586 442.87ZM708.085 483.294C713.318 483.278 718.333 481.193 722.034 477.494C725.734 473.795 727.821 468.783 727.837 463.552C727.837 458.317 725.756 453.295 722.052 449.593C718.348 445.89 713.323 443.81 708.085 443.81C702.851 443.827 697.837 445.912 694.136 449.611C690.435 453.31 688.349 458.322 688.332 463.552C688.349 468.783 690.435 473.795 694.136 477.494C697.837 481.193 702.851 483.278 708.085 483.294ZM845.349 510.682C850.582 510.666 855.597 508.581 859.298 504.882C862.998 501.183 865.085 496.171 865.101 490.94C865.085 485.71 862.998 480.698 859.298 476.999C855.597 473.3 850.582 471.215 845.349 471.198C840.115 471.215 835.101 473.3 831.4 476.999C827.699 480.698 825.613 485.71 825.596 490.94C825.596 496.176 827.677 501.198 831.382 504.9C835.086 508.602 840.11 510.682 845.349 510.682ZM605.999 537.632C611.238 537.632 616.262 535.552 619.966 531.849C623.67 528.147 625.752 523.126 625.752 517.89C625.752 512.654 623.67 507.632 619.966 503.93C616.262 500.228 611.238 498.148 605.999 498.148C600.76 498.148 595.736 500.228 592.032 503.93C588.328 507.632 586.247 512.654 586.247 517.89C586.247 523.126 588.328 528.147 592.032 531.849C595.736 535.552 600.76 537.632 605.999 537.632ZM1051.21 539.95C1056.45 539.95 1061.48 537.871 1065.18 534.168C1068.88 530.466 1070.97 525.444 1070.97 520.209C1070.95 514.984 1068.86 509.978 1065.16 506.289C1061.46 502.601 1056.44 500.529 1051.21 500.529C1046.15 500.54 1041.29 502.5 1037.63 506.001C1033.98 509.503 1031.81 514.276 1031.59 519.331C1031.62 519.686 1031.62 520.042 1031.59 520.397C1031.62 520.772 1031.62 521.149 1031.59 521.525C1031.81 526.58 1033.98 531.353 1037.63 534.855C1041.29 538.356 1046.15 540.315 1051.21 540.327V539.95ZM1121.44 602.498C1126.68 602.498 1131.71 600.418 1135.41 596.716C1139.12 593.013 1141.2 587.992 1141.2 582.756C1141.18 577.531 1139.09 572.526 1135.39 568.837C1131.69 565.148 1126.67 563.077 1121.44 563.077C1116.22 563.077 1111.2 565.148 1107.5 568.837C1103.8 572.526 1101.71 577.531 1101.69 582.756C1101.69 587.992 1103.77 593.013 1107.48 596.716C1111.18 600.418 1116.21 602.498 1121.44 602.498ZM663.313 606.446C665.912 606.414 668.479 605.868 670.867 604.842C673.255 603.816 675.417 602.328 677.229 600.465C679.041 598.602 680.467 596.4 681.425 593.984C682.384 591.569 682.856 588.989 682.814 586.391C682.798 581.166 680.709 576.161 677.007 572.472C673.304 568.783 668.29 566.712 663.062 566.712C657.845 566.728 652.846 568.807 649.157 572.494C645.468 576.181 643.388 581.177 643.372 586.391C643.372 591.616 645.444 596.628 649.135 600.329C652.826 604.029 657.834 606.116 663.062 606.133L663.313 606.446ZM1055.29 665.233C1060.53 665.233 1065.55 663.153 1069.26 659.451C1072.96 655.749 1075.04 650.727 1075.04 645.491C1075.02 640.266 1072.94 635.261 1069.23 631.572C1065.53 627.883 1060.52 625.812 1055.29 625.812C1050.06 625.812 1045.05 627.883 1041.34 631.572C1037.64 635.261 1035.55 640.266 1035.54 645.491C1035.55 650.722 1037.64 655.734 1041.34 659.433C1045.04 663.132 1050.06 665.217 1055.29 665.233ZM923.167 373.304C909.863 373.304 897.103 378.586 887.695 387.989C878.287 397.391 873.002 410.144 873.002 423.442C873.108 432.508 875.671 441.375 880.419 449.101C885.167 456.826 891.923 463.12 899.966 467.313V468.065H889.243C885.048 460.026 878.751 453.274 871.021 448.529C863.292 443.783 854.419 441.221 845.349 441.116C840.131 441.118 834.946 441.942 829.986 443.56C832.877 437.244 834.395 430.387 834.438 423.442C834.438 410.198 829.196 397.493 819.856 388.099C810.516 378.705 797.837 373.386 784.586 373.304C771.622 373.293 759.158 378.299 749.805 387.273C740.453 396.246 734.94 408.489 734.421 421.436C726.453 416.385 717.207 413.711 707.771 413.728C694.521 413.727 681.808 418.967 672.41 428.302C663.011 437.637 657.689 450.309 657.606 463.552C657.686 474.978 661.668 486.034 668.893 494.889H649.643C645.418 486.794 639.062 480.006 631.26 475.256C623.458 470.507 614.507 467.977 605.372 467.939C592.067 467.939 579.308 473.222 569.9 482.625C560.492 492.027 555.207 504.78 555.207 518.078C555.207 531.375 560.492 544.128 569.9 553.531C579.308 562.933 592.067 568.216 605.372 568.216C609.217 568.202 613.047 567.739 616.785 566.837C614.286 573.048 613.07 579.699 613.21 586.391C613.21 599.688 618.496 612.441 627.903 621.844C637.311 631.247 650.071 636.529 663.375 636.529C672.504 636.498 681.45 633.977 689.252 629.239C697.053 624.501 703.413 617.726 707.646 609.643H734.233V621.425C734.25 627.487 736.667 633.296 740.955 637.582C745.244 641.869 751.056 644.284 757.121 644.301H782.204V791.958C782.189 795.152 782.852 798.313 784.147 801.233L831.616 908.341L835.755 917.679H876.075L880.339 908.905L932.949 802.361C934.327 799.073 934.948 795.518 934.768 791.958V693.373H971.827C974.835 693.382 977.815 692.796 980.596 691.649C983.376 690.502 985.903 688.818 988.03 686.692C990.157 684.566 991.842 682.041 992.99 679.262C994.137 676.483 994.723 673.504 994.715 670.498V668.304H1010.96C1015.15 676.343 1021.45 683.095 1029.18 687.84C1036.91 692.586 1045.78 695.148 1054.85 695.254C1068.1 695.254 1080.81 690.014 1090.21 680.679C1099.61 671.344 1104.93 658.672 1105.02 645.429C1105.02 639.614 1104 633.845 1102.01 628.382C1107.96 630.894 1114.35 632.193 1120.82 632.205C1134.07 632.205 1146.78 626.966 1156.18 617.631C1165.58 608.296 1170.9 595.623 1170.98 582.38C1170.98 569.137 1165.74 556.431 1156.4 547.037C1147.06 537.643 1134.38 532.325 1121.13 532.242C1112.74 532.271 1104.5 534.427 1097.18 538.509C1099.59 532.536 1100.8 526.148 1100.75 519.707C1100.65 506.529 1095.37 493.92 1086.04 484.607C1076.71 475.294 1064.08 470.027 1050.9 469.945C1041.77 469.977 1032.82 472.497 1025.02 477.235C1017.22 481.973 1010.86 488.748 1006.63 496.832H945.992V467.313C954.106 463.171 960.937 456.899 965.754 449.17C970.571 441.441 973.19 432.546 973.332 423.442C973.332 410.144 968.047 397.391 958.639 387.989C949.231 378.586 936.472 373.304 923.167 373.304ZM730.973 507.737C738.833 503.646 745.468 497.548 750.205 490.062C754.941 482.576 757.609 473.97 757.936 465.119C759.132 465.947 760.39 466.68 761.699 467.313V520.397H730.973V507.862V507.737ZM889.557 514.004H900.279V609.893H877.58C872.369 609.876 867.314 611.67 863.283 614.97V543.272C863.278 541.371 863.046 539.478 862.593 537.632C874.218 533.299 883.825 524.814 889.557 513.816V514.004ZM945.992 543.335H1006.63C1010 549.696 1014.68 555.27 1020.36 559.692H971.764C965.699 559.709 959.887 562.124 955.599 566.411C951.31 570.697 948.893 576.506 948.877 582.568V647.81H940.286C943.978 643.671 946.01 638.314 945.992 632.769V543.147V543.335ZM767.468 566.336H817.633V602.373C813.826 599.772 809.326 598.375 804.715 598.361H779.633V586.391C779.634 582.239 778.502 578.166 776.358 574.61C774.215 571.053 771.141 568.149 767.468 566.21V566.336ZM994.715 605.193H1026.07C1019.77 609.746 1014.6 615.685 1010.96 622.553H994.59V605.193H994.715Z" fill="#00EFE3"/>
<path d="M946.164 741.176C946.855 881.375 947.822 1162.6 946.164 1165.92L556.438 1062.32V668.659L946.164 741.176Z" fill="#334DA5"/>
<path d="M1159.68 1029.17L1163.83 639.652L946.164 741.176V1167.99L1159.68 1029.17Z" fill="#1C3074"/>
<path d="M941.043 1494.18C1215.99 1494.18 1198.82 1375.28 1198.82 1375.28L1198.51 1252.1H936.139V1215.11H1302.73C1302.73 1215.11 1478.66 1235.01 1478.66 958.351C1478.66 681.694 1325.1 691.505 1325.1 691.505H1233.45V819.884C1233.45 819.884 1238.39 973.023 1082.34 973.023C926.294 973.023 822.117 973.023 822.117 973.023C822.117 973.023 675.911 970.666 675.911 1113.93C675.911 1257.2 675.911 1350.83 675.911 1350.83C675.911 1350.83 653.713 1494.18 941.043 1494.18ZM1085.72 1411.35C1059.61 1411.35 1038.51 1390.31 1038.51 1364.27C1038.51 1338.24 1059.61 1317.2 1085.72 1317.2C1111.82 1317.2 1132.92 1338.24 1132.92 1364.27C1132.92 1390.31 1111.82 1411.35 1085.72 1411.35Z" fill="white"/>
<path fill-rule="evenodd" clip-rule="evenodd" d="M675.911 1350.82V1113.93C675.911 970.666 822.117 973.023 822.117 973.023H1082.34C1238.39 973.023 1233.45 819.884 1233.45 819.884V691.505H1325.1C1325.1 691.505 1478.66 681.694 1478.66 958.351C1478.66 1235.01 1302.73 1215.11 1302.73 1215.11H936.139V1252.1H1198.51L1198.82 1375.28C1198.82 1375.28 1215.99 1494.18 941.043 1494.18C653.713 1494.18 675.911 1350.82 675.911 1350.82ZM1249.29 1372.97C1249.29 1373.06 1249.3 1373.14 1249.3 1373.23C1249.45 1375.47 1249.55 1378.23 1249.48 1381.43C1249.35 1387.84 1248.57 1396.13 1246.27 1405.67C1241.58 1425.14 1230.81 1448.58 1208.52 1470.6C1164.56 1514.05 1083.88 1544.63 941.043 1544.63C790.44 1544.63 706.31 1507.15 662.211 1455.1C640.404 1429.37 630.967 1402.86 627.249 1382.12C625.409 1371.85 624.971 1363.04 625.048 1356.4C625.086 1353.15 625.248 1350.39 625.438 1348.19V1113.93C625.438 1069.09 637.038 1032.15 657.164 1002.9C677.04 974 703.092 955.683 727.392 944.169C751.504 932.744 774.959 927.481 791.918 924.985C800.524 923.718 807.801 923.114 813.118 922.828C815.785 922.684 817.984 922.619 819.639 922.592C820.468 922.578 821.162 922.574 821.713 922.574C821.955 922.574 822.17 922.575 822.356 922.576H1082.34C1112.73 922.576 1131.62 915.254 1143.73 907.16C1156.1 898.895 1164.73 887.577 1170.86 874.735C1177.11 861.648 1180.28 847.898 1181.78 836.94C1182.52 831.589 1182.82 827.238 1182.93 824.423C1182.99 823.024 1183 822.033 1183 821.518C1183 821.383 1183 821.281 1183 821.215L1182.98 820.697V641.058H1324.12C1324.84 641.036 1325.68 641.02 1326.63 641.016C1328.83 641.008 1331.64 641.067 1334.96 641.283C1341.6 641.713 1350.42 642.771 1360.71 645.203C1381.37 650.086 1408.06 660.56 1434.29 682.504C1488.04 727.492 1529.14 811.08 1529.14 958.351C1529.14 1107.76 1480.95 1190.54 1418.89 1232.32C1389.27 1252.25 1359.72 1260.5 1337.66 1263.79C1326.59 1265.44 1317.19 1265.88 1310.25 1265.87C1306.76 1265.87 1303.86 1265.75 1301.64 1265.62C1301.3 1265.6 1300.98 1265.58 1300.67 1265.56H1249.02L1249.29 1372.97ZM1088.99 1364.27C1088.99 1362.34 1087.38 1360.9 1085.72 1360.9C1084.05 1360.9 1082.44 1362.34 1082.44 1364.27C1082.44 1366.21 1084.05 1367.65 1085.72 1367.65C1087.38 1367.65 1088.99 1366.21 1088.99 1364.27ZM1038.51 1364.27C1038.51 1390.31 1059.61 1411.35 1085.72 1411.35C1111.82 1411.35 1132.92 1390.31 1132.92 1364.27C1132.92 1338.24 1111.82 1317.2 1085.72 1317.2C1059.61 1317.2 1038.51 1338.24 1038.51 1364.27Z" fill="#00EFE3"/>
</svg>
