<svg width="1704" height="1695" viewBox="0 0 1704 1695" fill="none" xmlns="http://www.w3.org/2000/svg">
<path fill-rule="evenodd" clip-rule="evenodd" d="M511.162 282.515C511.162 282.515 492.194 151 795.943 151C1113.37 151 1088.85 309.562 1088.85 309.562V545.237C1087.59 545.926 1086.36 546.681 1085.17 547.501C1078.19 552.306 1072.82 559.099 1069.74 566.999H959.759C955.772 566.999 951.948 568.584 949.129 571.405C946.31 574.225 944.727 578.051 944.727 582.04V654.992H899.819C895.827 655.025 892.01 656.639 889.204 659.482C886.399 662.324 884.833 666.163 884.85 670.158V727.434H880.403V647.032H910.842C914.829 647.032 918.652 645.447 921.471 642.627C924.291 639.806 925.874 635.98 925.874 631.991V534.723H999.342C1002.42 542.622 1007.79 549.415 1014.77 554.221C1021.75 559.026 1030.02 561.622 1038.49 561.672C1049.62 561.655 1060.3 557.217 1068.16 549.333C1076.03 541.448 1080.45 530.761 1080.45 519.618C1080.44 508.493 1076.01 497.828 1068.14 489.967C1060.27 482.106 1049.61 477.69 1038.49 477.69C1030.02 477.727 1021.76 480.31 1014.78 485.105C1007.8 489.9 1002.42 496.684 999.342 504.577H925.874V462.273C933.769 459.196 940.558 453.816 945.36 446.832C950.162 439.847 952.756 431.58 952.806 423.102C952.79 411.971 948.363 401.3 940.497 393.429C932.631 385.558 921.967 381.128 910.842 381.112C899.718 381.128 889.054 385.558 881.188 393.429C873.322 401.3 868.895 411.971 868.878 423.102C869.01 431.556 871.671 439.775 876.516 446.702C881.361 453.628 888.169 458.942 896.061 461.96V475.873H872.511C869.436 467.973 864.06 461.18 857.08 456.375C850.1 451.569 841.838 448.973 833.366 448.924C822.241 448.94 811.577 453.369 803.711 461.241C795.845 469.112 791.418 479.783 791.402 490.914C791.41 498.603 793.521 506.143 797.507 512.716C801.493 519.29 807.201 524.646 814.012 528.205H787.706V462.273C789.608 461.536 791.445 460.666 793.206 459.671H801.361V453.669C803.538 451.62 805.502 449.336 807.214 446.847C812.018 439.859 814.606 431.584 814.639 423.102C814.639 411.966 810.217 401.285 802.348 393.41C794.478 385.536 783.804 381.112 772.675 381.112C761.55 381.128 750.886 385.558 743.02 393.429C736.183 400.27 731.944 409.227 730.941 418.763H511.5L511.162 282.515ZM688.261 294.686C688.261 265.893 664.952 242.621 636.113 242.621C607.274 242.621 583.965 265.893 583.965 294.686C583.965 323.479 607.274 346.751 636.113 346.751C664.952 346.751 688.261 323.479 688.261 294.686Z" fill="black"/>
<path d="M783.623 418.763H761.243C761.835 417.133 762.779 415.636 764.028 414.387C766.256 412.158 769.273 410.898 772.424 410.881C775.58 410.881 778.607 412.136 780.839 414.369C782.091 415.622 783.036 417.126 783.623 418.763Z" fill="black"/>
<path d="M752.638 459.671H737.941C738.048 460.888 738.101 462.112 738.101 463.338C738.065 471.811 735.483 480.076 730.692 487.062C725.9 494.047 719.12 499.429 711.232 502.509V528.017H757.518V461.96C755.838 461.299 754.208 460.534 752.638 459.671Z" fill="black"/>
<path d="M684.713 459.671H707.374C707.728 460.807 707.912 462.001 707.912 463.213C707.896 466.366 706.637 469.385 704.409 471.615C702.181 473.844 699.163 475.104 696.012 475.121C692.867 475.104 689.856 473.842 687.638 471.611C685.42 469.38 684.175 466.36 684.175 463.213C684.175 462.001 684.359 460.808 684.713 459.671Z" fill="black"/>
<path d="M654.339 459.671H396.369C396.369 459.671 202 437.663 202 743.662C202 1049.66 371.65 1038.81 371.65 1038.81H472.897V896.814C472.897 896.814 467.44 727.434 639.838 727.434H777.372V635.751H744.74C742.764 635.759 740.806 635.376 738.978 634.623C737.151 633.87 735.49 632.762 734.093 631.364C732.695 629.966 731.588 628.304 730.836 626.476C730.083 624.647 729.7 622.687 729.709 620.71V601.093H690.25C687.172 608.986 681.794 615.77 674.813 620.565C667.832 625.36 659.572 627.943 651.105 627.98C639.975 627.98 629.301 623.556 621.432 615.681C613.562 607.806 609.141 597.126 609.141 585.989C609.157 574.857 613.584 564.186 621.45 556.315C629.316 548.444 639.98 544.015 651.105 543.998C659.577 544.048 667.839 546.644 674.819 551.449C681.799 556.255 687.175 563.048 690.25 570.947H744.74C748.722 570.964 752.536 572.554 755.351 575.371C758.167 578.188 759.756 582.005 759.772 585.989V605.668H792.404C796.386 605.685 800.199 607.275 803.015 610.092C805.83 612.909 807.419 616.725 807.436 620.71V727.434H813.261V557.974H696.137C692.156 557.958 688.342 556.368 685.527 553.55C682.711 550.733 681.122 546.917 681.106 542.933V532.592H633.379C630.293 540.496 624.906 547.292 617.915 552.097C610.924 556.902 602.652 559.495 594.171 559.541C583.047 559.524 572.383 555.095 564.517 547.224C556.651 539.353 552.224 528.682 552.208 517.55C552.224 506.419 556.651 495.748 564.517 487.877C572.383 480.005 583.047 475.576 594.171 475.56C602.652 475.605 610.924 478.199 617.915 483.004C624.906 487.809 630.293 494.604 633.379 502.509H681.106C673.211 499.432 666.422 494.052 661.62 487.068C656.818 480.083 654.223 471.816 654.174 463.338C654.175 462.109 654.231 460.886 654.339 459.671Z" fill="black"/>
<path d="M850.339 727.434H843.45V542.933C843.397 540.955 842.955 539.007 842.149 537.2C841.343 535.393 840.189 533.763 838.752 532.404C846.196 531.361 853.226 528.348 859.117 523.676C865.008 519.004 869.545 512.844 872.261 505.83H895.811V617.388H865.371C861.417 617.388 857.621 618.947 854.808 621.727C851.994 624.507 850.389 628.285 850.339 632.241V727.434Z" fill="black"/>
<path d="M914.6 727.434H927.328C927.328 727.434 994.337 728.515 1042.03 686.943C1033.85 686.744 1025.88 684.169 1019.12 679.521C1012.13 674.715 1006.74 667.915 1003.66 660.005H974.54V670.033C974.54 674.022 972.956 677.848 970.137 680.669C967.318 683.49 963.495 685.075 959.508 685.075H914.6V727.434Z" fill="black"/>
<path d="M1080.85 627.237C1081.99 623.654 1083.03 619.943 1083.94 616.1C1077.31 611.326 1072.2 604.72 1069.24 597.082H974.54V629.922H1003.66C1006.75 622.018 1012.14 615.223 1019.13 610.418C1026.12 605.613 1034.39 603.019 1042.87 602.973C1053.99 602.99 1064.65 607.421 1072.5 615.294C1075.99 618.791 1078.8 622.841 1080.85 627.237Z" fill="black"/>
<path d="M1034.48 636.71C1036.71 634.49 1039.73 633.244 1042.87 633.244C1044.43 633.244 1045.97 633.551 1047.4 634.146C1048.84 634.741 1050.14 635.614 1051.24 636.714C1052.34 637.813 1053.21 639.119 1053.81 640.556C1054.4 641.993 1054.71 643.534 1054.71 645.089C1054.71 648.237 1053.46 651.256 1051.25 653.487C1049.03 655.719 1046.02 656.981 1042.87 656.997C1039.72 656.997 1036.69 655.743 1034.46 653.509C1032.23 651.276 1030.97 648.247 1030.97 645.089C1030.99 641.942 1032.25 638.929 1034.48 636.71Z" fill="black"/>
<path d="M646.551 575.05C647.994 574.452 649.542 574.144 651.105 574.144C654.261 574.144 657.288 575.398 659.519 577.631C661.751 579.865 663.005 582.893 663.005 586.052C663.005 589.21 661.751 592.238 659.519 594.472C657.288 596.705 654.261 597.959 651.105 597.959C649.542 597.959 647.994 597.651 646.551 597.053C645.107 596.455 643.795 595.577 642.69 594.472C641.585 593.366 640.708 592.053 640.11 590.608C639.512 589.164 639.204 587.615 639.204 586.052C639.204 584.488 639.512 582.939 640.11 581.495C640.708 580.05 641.585 578.737 642.69 577.631C643.795 576.526 645.107 575.649 646.551 575.05Z" fill="black"/>
<path d="M1030.73 528.832C1028.59 526.941 1027.2 524.335 1026.84 521.499C1026.88 520.956 1026.88 520.412 1026.84 519.869C1026.88 519.348 1026.88 518.824 1026.84 518.302C1027.22 515.472 1028.6 512.873 1030.74 510.984C1032.88 509.095 1035.63 508.044 1038.49 508.024C1041.63 508.024 1044.65 509.27 1046.88 511.49C1049.11 513.709 1050.37 516.722 1050.39 519.869C1050.39 523.027 1049.13 526.056 1046.9 528.289C1044.67 530.522 1041.64 531.777 1038.49 531.777C1035.63 531.77 1032.87 530.723 1030.73 528.832Z" fill="black"/>
<path d="M585.65 509.148C587.878 506.919 590.895 505.659 594.046 505.642C595.609 505.642 597.156 505.95 598.6 506.549C600.044 507.147 601.356 508.024 602.461 509.13C603.566 510.236 604.443 511.549 605.041 512.993C605.639 514.438 605.946 515.986 605.946 517.55C605.946 519.114 605.639 520.662 605.041 522.107C604.443 523.552 603.566 524.865 602.461 525.97C601.356 527.076 600.044 527.953 598.6 528.552C597.156 529.15 595.609 529.458 594.046 529.458C590.895 529.442 587.878 528.182 585.65 525.952C583.421 523.723 582.162 520.703 582.146 517.55C582.162 514.397 583.421 511.378 585.65 509.148Z" fill="black"/>
<path d="M824.719 482.199C826.947 479.969 829.964 478.71 833.115 478.693C836.266 478.71 839.284 479.969 841.512 482.199C843.74 484.429 844.999 487.448 845.015 490.601C845.015 493.759 843.762 496.788 841.53 499.021C839.298 501.254 836.271 502.509 833.115 502.509C829.959 502.509 826.932 501.254 824.7 499.021C822.469 496.788 821.215 493.759 821.215 490.601C821.231 487.448 822.49 484.429 824.719 482.199Z" fill="black"/>
<path d="M902.428 414.369C904.659 412.136 907.686 410.881 910.842 410.881C913.998 410.881 917.025 412.136 919.257 414.369C921.489 416.602 922.743 419.631 922.743 422.789C922.726 425.942 921.467 428.961 919.239 431.191C917.011 433.421 913.993 434.68 910.842 434.697C907.691 434.68 904.674 433.421 902.446 431.191C900.218 428.961 898.959 425.942 898.942 422.789C898.942 419.631 900.196 416.602 902.428 414.369Z" fill="black"/>
<path d="M812.917 586.513L759.429 599.804V606.007H792.061C796.042 606.024 799.856 607.614 802.672 610.431C805.487 613.248 807.076 617.065 807.093 621.049V716.01L812.917 717.105V586.513Z" fill="#262626"/>
<path d="M849.996 724.078L843.106 722.782V579.012L854.99 576.059V621.572C854.811 621.732 854.636 621.897 854.465 622.066C851.651 624.846 850.045 628.624 849.996 632.581V724.078Z" fill="#262626"/>
<path d="M777.029 710.357V636.09H744.397C742.421 636.099 740.462 635.715 738.635 634.962C736.807 634.209 735.147 633.102 733.75 631.703C732.352 630.305 731.245 628.643 730.493 626.815C729.74 624.986 729.357 623.026 729.365 621.049V607.274L674.446 620.921C667.47 625.705 659.219 628.283 650.761 628.319C649.108 628.319 647.464 628.221 645.839 628.029L513.751 660.85L777.029 710.357Z" fill="#262626"/>
<path d="M914.257 735.661L944.307 741.058L1184.78 628.767L1127.46 619.606C1121.52 622.708 1114.87 624.371 1108.04 624.371C1099.57 624.338 1091.3 621.749 1084.31 616.941C1082.07 615.396 1079.99 613.646 1078.1 611.718L1064.45 609.536C1067.23 611.246 1069.82 613.287 1072.16 615.633C1080.02 623.506 1084.43 634.177 1084.43 645.303C1084.43 656.429 1080.02 667.1 1072.16 674.973C1064.31 682.846 1053.65 687.277 1042.53 687.294C1034.05 687.257 1025.77 684.667 1018.78 679.86C1011.79 675.054 1006.4 668.254 1003.32 660.345H974.197V670.372C974.197 674.362 972.613 678.187 969.794 681.008C966.975 683.829 963.151 685.414 959.165 685.414H914.257V735.661Z" fill="black"/>
<path d="M1032.86 604.487L988.65 597.421H974.197V630.262H1003.32C1006.41 622.357 1011.79 615.562 1018.79 610.757C1023.08 607.808 1027.85 605.692 1032.86 604.487Z" fill="black"/>
<path d="M944.383 590.346L925.531 587.333V632.33C925.531 636.319 923.947 640.145 921.128 642.966C918.309 645.787 914.486 647.371 910.499 647.371H880.06V729.519L884.507 730.318V670.498C884.49 666.503 886.056 662.664 888.861 659.821C891.667 656.979 895.483 655.364 899.476 655.331H944.383V590.346Z" fill="black"/>
<path d="M854.99 621.571C857.741 619.102 861.314 617.727 865.028 617.727H895.467V582.528L854.99 576.059V621.571Z" fill="black"/>
<path d="M1034.14 637.049C1036.37 634.829 1039.38 633.583 1042.53 633.583C1044.08 633.583 1045.62 633.89 1047.06 634.485C1048.5 635.08 1049.8 635.953 1050.9 637.053C1052 638.153 1052.87 639.459 1053.47 640.896C1054.06 642.333 1054.37 643.873 1054.37 645.429C1054.37 648.576 1053.12 651.595 1050.9 653.827C1048.68 656.058 1045.67 657.32 1042.53 657.336C1039.37 657.336 1036.35 656.082 1034.11 653.849C1031.88 651.616 1030.63 648.587 1030.63 645.429C1030.65 642.281 1031.91 639.269 1034.14 637.049Z" fill="black"/>
<path d="M912.002 388.972C916.509 388.98 920.969 389.879 925.128 391.618C929.286 393.357 933.059 395.902 936.232 399.105C939.404 402.308 941.912 406.108 943.612 410.284C945.312 414.461 946.17 418.932 946.137 423.442C946.115 431.238 943.433 438.793 938.536 444.856C933.638 450.919 926.818 455.127 919.205 456.784V513.189H1006.33C1007.95 505.542 1012.14 498.683 1018.2 493.756C1024.27 488.828 1031.84 486.131 1039.65 486.115C1048.69 486.115 1057.36 489.705 1063.76 496.097C1070.16 502.489 1073.77 511.161 1073.78 520.209C1073.78 529.273 1070.19 537.968 1063.79 544.383C1057.39 550.799 1048.71 554.411 1039.65 554.428C1031.86 554.406 1024.31 551.723 1018.25 546.822C1012.19 541.921 1007.98 535.097 1006.33 527.479H919.205V632.581C919.205 634.492 918.446 636.326 917.095 637.677C915.744 639.029 913.912 639.788 912.002 639.788H873.671V791.958C873.736 792.415 873.736 792.879 873.671 793.336L861.896 855.257L893.525 790.328V670.498C893.525 668.586 894.284 666.753 895.635 665.401C896.986 664.05 898.818 663.29 900.728 663.29H953.402V582.38C953.419 580.474 954.183 578.65 955.53 577.302C956.877 575.954 958.7 575.189 960.605 575.173H1076.41C1078.08 567.549 1082.3 560.724 1088.37 555.824C1094.44 550.924 1102 548.242 1109.8 548.223C1118.81 548.289 1127.44 551.915 1133.79 558.312C1140.15 564.709 1143.73 573.359 1143.74 582.38C1143.73 591.434 1140.12 600.112 1133.73 606.514C1127.33 612.916 1118.66 616.52 1109.61 616.537C1101.81 616.529 1094.24 613.852 1088.17 608.95C1082.1 604.048 1077.88 597.216 1076.22 589.587H967.808V638.221H1010.65C1012.34 630.638 1016.56 623.857 1022.62 618.993C1028.67 614.129 1036.2 611.473 1043.97 611.46C1053.02 611.477 1061.69 615.081 1068.09 621.483C1074.49 627.885 1078.09 636.563 1078.1 645.617C1078.1 654.676 1074.51 663.364 1068.11 669.769C1061.7 676.175 1053.02 679.773 1043.97 679.773C1036.17 679.763 1028.62 677.084 1022.56 672.181C1016.5 667.278 1012.29 660.448 1010.65 652.824H967.808V670.686C967.816 671.635 967.635 672.576 967.276 673.454C966.917 674.332 966.387 675.13 965.717 675.801C965.046 676.472 964.249 677.002 963.371 677.362C962.494 677.721 961.553 677.902 960.605 677.893H907.931V791.958C907.934 793.067 907.677 794.162 907.179 795.154L854.693 902.011H834.4L786.737 794.903C786.313 793.98 786.099 792.974 786.11 791.958V628.256H745.587C743.677 628.256 741.844 627.497 740.494 626.145C739.143 624.794 738.384 622.961 738.384 621.049V593.598H685.334C683.664 601.215 679.444 608.033 673.373 612.923C667.302 617.812 659.744 620.48 651.951 620.485C642.957 620.403 634.358 616.778 628.016 610.397C621.674 604.015 618.099 595.391 618.067 586.391C618.083 577.337 621.685 568.659 628.083 562.257C634.481 555.855 643.153 552.251 652.201 552.234C660 552.253 667.559 554.935 673.629 559.835C679.699 564.735 683.917 571.56 685.585 579.184H745.837C746.783 579.184 747.72 579.37 748.594 579.732C749.468 580.094 750.262 580.625 750.93 581.295C751.599 581.964 752.13 582.758 752.492 583.633C752.854 584.507 753.04 585.445 753.04 586.391V613.904H793.563C795.469 613.921 797.291 614.685 798.638 616.033C799.986 617.382 800.75 619.205 800.766 621.112V790.328L830.579 858.14L822.187 793.211C822.156 792.899 822.156 792.584 822.187 792.271V550.48H697.172C695.266 550.463 693.444 549.699 692.097 548.35C690.749 547.002 689.985 545.179 689.969 543.272V525.097H628.526C626.882 532.721 622.679 539.551 616.617 544.454C610.556 549.357 603 552.036 595.206 552.046C586.19 551.98 577.566 548.354 571.208 541.958C564.851 535.561 561.275 526.911 561.259 517.89C561.275 508.836 564.877 500.158 571.275 493.756C577.673 487.354 586.345 483.75 595.394 483.733C603.191 483.732 610.753 486.407 616.817 491.311C622.881 496.216 627.08 503.053 628.714 510.682H690.157V496.894C682.544 495.238 675.724 491.03 670.826 484.967C665.928 478.903 663.247 471.349 663.225 463.552C663.323 454.585 666.935 446.015 673.284 439.686C679.632 433.357 688.21 429.774 697.172 429.709C706.225 429.709 714.907 433.308 721.309 439.713C727.71 446.119 731.307 454.807 731.307 463.866C731.296 471.665 728.619 479.226 723.719 485.291C718.82 491.357 711.993 495.562 704.374 497.208V536.253H766.381V456.658C758.788 455.007 751.984 450.817 747.089 444.78C742.194 438.742 739.499 431.216 739.449 423.442C739.416 418.932 740.274 414.461 741.974 410.284C743.674 406.108 746.182 402.308 749.354 399.105C752.526 395.902 756.3 393.357 760.458 391.618C764.616 389.879 769.077 388.98 773.584 388.972C778.09 388.98 782.551 389.879 786.709 391.618C790.868 393.357 794.641 395.902 797.813 399.105C800.986 402.308 803.494 406.108 805.194 410.284C806.893 414.461 807.751 418.932 807.718 423.442C807.697 431.238 805.015 438.793 800.117 444.856C795.22 450.919 788.4 455.127 780.786 456.784V536.253H829.327C830.283 536.211 831.238 536.36 832.136 536.692C833.034 537.023 833.857 537.531 834.557 538.184C835.257 538.838 835.819 539.624 836.212 540.498C836.604 541.372 836.819 542.315 836.843 543.272V791.519L846.05 861.65L859.265 791.268V632.581C859.282 630.674 860.046 628.851 861.393 627.503C862.74 626.154 864.563 625.39 866.468 625.373H904.799V498.148H867.595C865.951 505.771 861.748 512.602 855.687 517.505C849.625 522.407 842.069 525.087 834.275 525.097C825.222 525.097 816.539 521.498 810.138 515.093C803.736 508.687 800.14 499.999 800.14 490.94C800.156 481.887 803.758 473.208 810.156 466.806C816.554 460.404 825.227 456.8 834.275 456.784C842.066 456.806 849.616 459.489 855.675 464.39C861.735 469.291 865.94 476.115 867.595 483.733H904.799V456.47C897.233 454.836 890.446 450.678 885.552 444.676C880.658 438.675 877.949 431.187 877.867 423.442C877.826 418.93 878.678 414.455 880.375 410.274C882.072 406.094 884.58 402.292 887.754 399.087C890.927 395.882 894.704 393.338 898.866 391.601C903.028 389.865 907.493 388.972 912.002 388.972V388.972ZM912.002 442.87C917.176 442.855 922.138 440.813 925.825 437.181C929.513 433.55 931.633 428.618 931.731 423.442C931.764 420.825 931.279 418.228 930.303 415.8C929.327 413.373 927.88 411.163 926.046 409.298C924.211 407.433 922.026 405.95 919.615 404.936C917.205 403.921 914.617 403.395 912.002 403.387C909.384 403.386 906.793 403.907 904.379 404.919C901.965 405.93 899.776 407.413 897.939 409.279C896.103 411.146 894.656 413.359 893.684 415.791C892.711 418.222 892.231 420.823 892.273 423.442C892.371 428.618 894.491 433.55 898.178 437.181C901.866 440.813 906.828 442.855 912.002 442.87V442.87ZM773.584 442.87C778.757 442.855 783.72 440.813 787.407 437.181C791.095 433.55 793.215 428.618 793.313 423.442C793.355 420.823 792.875 418.222 791.902 415.791C790.929 413.359 789.482 411.146 787.646 409.279C785.81 407.413 783.621 405.93 781.207 404.919C778.792 403.907 776.201 403.386 773.584 403.387C770.966 403.386 768.375 403.907 765.961 404.919C763.546 405.93 761.357 407.413 759.521 409.279C757.685 411.146 756.238 413.359 755.265 415.791C754.292 418.222 753.813 420.823 753.854 423.442C753.953 428.618 756.072 433.55 759.76 437.181C763.448 440.813 768.41 442.855 773.584 442.87V442.87ZM697.172 483.294C702.399 483.278 707.408 481.193 711.104 477.494C714.801 473.795 716.884 468.783 716.901 463.552C716.901 458.317 714.822 453.295 711.122 449.593C707.422 445.89 702.404 443.81 697.172 443.81C691.944 443.827 686.936 445.912 683.239 449.611C679.543 453.31 677.459 458.322 677.442 463.552C677.459 468.783 679.543 473.795 683.239 477.494C686.936 481.193 691.944 483.278 697.172 483.294V483.294ZM834.275 510.682C839.502 510.666 844.511 508.581 848.207 504.882C851.904 501.183 853.988 496.171 854.004 490.94C853.988 485.71 851.904 480.698 848.207 476.999C844.511 473.3 839.502 471.215 834.275 471.198C829.047 471.215 824.039 473.3 820.342 476.999C816.646 480.698 814.562 485.71 814.545 490.94C814.545 496.176 816.624 501.198 820.324 504.9C824.024 508.602 829.042 510.682 834.275 510.682V510.682ZM595.206 537.632C600.438 537.632 605.456 535.552 609.156 531.849C612.856 528.147 614.935 523.126 614.935 517.89C614.935 512.654 612.856 507.632 609.156 503.93C605.456 500.228 600.438 498.148 595.206 498.148C589.973 498.148 584.955 500.228 581.255 503.93C577.555 507.632 575.476 512.654 575.476 517.89C575.476 523.126 577.555 528.147 581.255 531.849C584.955 535.552 589.973 537.632 595.206 537.632ZM1039.9 539.95C1045.13 539.95 1050.15 537.871 1053.85 534.168C1057.55 530.466 1059.63 525.444 1059.63 520.209C1059.61 514.984 1057.52 509.978 1053.83 506.289C1050.13 502.601 1045.12 500.529 1039.9 500.529C1034.84 500.54 1029.98 502.5 1026.33 506.001C1022.68 509.502 1020.52 514.276 1020.29 519.331C1020.32 519.686 1020.32 520.042 1020.29 520.397C1020.33 520.772 1020.33 521.149 1020.29 521.525C1020.52 526.58 1022.68 531.353 1026.33 534.855C1029.98 538.356 1034.84 540.315 1039.9 540.327V539.95ZM1110.05 602.498C1115.28 602.498 1120.3 600.418 1124 596.716C1127.7 593.013 1129.78 587.992 1129.78 582.756C1129.76 577.531 1127.67 572.526 1123.98 568.837C1120.28 565.148 1115.27 563.077 1110.05 563.077C1104.82 563.077 1099.82 565.148 1096.12 568.837C1092.42 572.526 1090.33 577.531 1090.32 582.756C1090.32 587.992 1092.4 593.013 1096.1 596.716C1099.8 600.418 1104.81 602.498 1110.05 602.498V602.498ZM652.452 606.446C655.048 606.414 657.613 605.868 659.998 604.842C662.383 603.816 664.543 602.328 666.352 600.465C668.162 598.602 669.586 596.4 670.543 593.984C671.501 591.569 671.972 588.989 671.931 586.391C671.914 581.166 669.828 576.161 666.13 572.472C662.432 568.783 657.423 566.712 652.201 566.712C646.991 566.728 641.998 568.807 638.313 572.494C634.629 576.181 632.551 581.177 632.535 586.391C632.535 591.616 634.605 596.628 638.291 600.329C641.978 604.029 646.98 606.116 652.201 606.133L652.452 606.446ZM1043.97 665.233C1049.2 665.233 1054.22 663.153 1057.92 659.451C1061.62 655.749 1063.7 650.727 1063.7 645.491C1063.68 640.266 1061.6 635.261 1057.9 631.572C1054.2 627.883 1049.19 625.812 1043.97 625.812C1038.75 625.812 1033.74 627.883 1030.04 631.572C1026.34 635.261 1024.26 640.266 1024.24 645.491C1024.26 650.722 1026.34 655.734 1030.04 659.433C1033.73 663.132 1038.74 665.217 1043.97 665.233V665.233ZM912.002 373.304C898.713 373.304 885.968 378.586 876.572 387.989C867.175 397.391 861.896 410.144 861.896 423.442C862.001 432.508 864.562 441.375 869.304 449.101C874.047 456.826 880.794 463.12 888.828 467.313V468.065H878.118C873.928 460.026 867.638 453.274 859.917 448.529C852.197 443.783 843.335 441.221 834.275 441.116C829.063 441.118 823.884 441.942 818.93 443.56C821.818 437.244 823.334 430.387 823.377 423.442C823.377 410.198 818.141 397.493 808.812 388.099C799.483 378.705 786.818 373.386 773.584 373.304C760.635 373.293 748.185 378.299 738.843 387.273C729.502 396.246 723.995 408.489 723.477 421.436C715.518 416.385 706.284 413.711 696.859 413.728C683.624 413.727 670.926 418.967 661.538 428.302C652.151 437.637 646.835 450.309 646.752 463.552C646.832 474.978 650.81 486.034 658.026 494.889H638.798C634.578 486.794 628.229 480.006 620.437 475.256C612.644 470.507 603.703 467.977 594.579 467.939C581.29 467.939 568.546 473.222 559.149 482.625C549.752 492.027 544.473 504.78 544.473 518.078C544.473 531.375 549.752 544.128 559.149 553.531C568.546 562.933 581.29 568.216 594.579 568.216C598.42 568.202 602.245 567.739 605.978 566.837C603.483 573.048 602.269 579.699 602.408 586.391C602.408 599.688 607.687 612.441 617.084 621.844C626.481 631.247 639.226 636.529 652.515 636.529C661.632 636.498 670.569 633.977 678.361 629.239C686.153 624.501 692.505 617.726 696.733 609.643H723.29V621.425C723.306 627.487 725.72 633.296 730.004 637.582C734.287 641.869 740.092 644.284 746.15 644.301H771.204V791.958C771.189 795.152 771.851 798.313 773.145 801.233L820.558 908.341L824.692 917.679H864.965L869.224 908.905L921.773 802.361C923.149 799.073 923.769 795.518 923.589 791.958V693.373H960.605C963.609 693.382 966.586 692.796 969.363 691.649C972.141 690.502 974.664 688.818 976.788 686.692C978.913 684.566 980.597 682.041 981.743 679.262C982.888 676.483 983.474 673.504 983.466 670.498V668.304H999.688C1003.88 676.343 1010.17 683.095 1017.89 687.84C1025.61 692.586 1034.47 695.148 1043.53 695.254C1056.77 695.254 1069.46 690.014 1078.85 680.679C1088.24 671.344 1093.55 658.672 1093.64 645.429C1093.64 639.614 1092.62 633.845 1090.63 628.382C1096.58 630.894 1102.97 632.193 1109.42 632.205C1122.66 632.205 1135.35 626.966 1144.74 617.631C1154.13 608.296 1159.44 595.623 1159.53 582.38C1159.53 569.137 1154.29 556.431 1144.96 547.037C1135.63 537.643 1122.97 532.325 1109.73 532.242C1101.36 532.271 1093.12 534.427 1085.81 538.509C1088.22 532.536 1089.43 526.148 1089.38 519.707C1089.28 506.529 1084 493.92 1074.68 484.607C1065.36 475.294 1052.75 470.027 1039.58 469.945C1030.47 469.977 1021.53 472.497 1013.74 477.235C1005.95 481.973 999.594 488.748 995.366 496.832H934.8V467.313C942.904 463.171 949.728 456.899 954.539 449.17C959.35 441.441 961.967 432.546 962.108 423.442C962.108 410.144 956.829 397.391 947.432 387.989C938.036 378.586 925.291 373.304 912.002 373.304ZM720.033 507.737C727.884 503.646 734.512 497.548 739.242 490.062C743.973 482.576 746.637 473.97 746.965 465.119C748.159 465.947 749.415 466.68 750.723 467.313V520.397H720.033V507.862V507.737ZM878.431 514.004H889.141V609.893H866.468C861.263 609.876 856.215 611.67 852.188 614.97V543.272C852.183 541.371 851.951 539.478 851.499 537.632C863.11 533.299 872.706 524.814 878.431 513.816V514.004ZM934.8 543.335H995.366C998.732 549.696 1003.41 555.27 1009.08 559.692H960.542C954.484 559.709 948.679 562.124 944.395 566.411C940.112 570.697 937.698 576.506 937.681 582.568V647.81H929.101C932.788 643.671 934.818 638.314 934.8 632.769V543.147V543.335ZM756.485 566.336H806.591V602.373C802.789 599.772 798.294 598.375 793.689 598.362H768.636V586.391C768.637 582.239 767.506 578.166 765.365 574.61C763.224 571.053 760.154 568.149 756.485 566.21V566.336ZM983.466 605.193H1014.78C1008.49 609.746 1003.32 615.685 999.688 622.553H983.341V605.193H983.466Z" fill="black"/>
<path d="M908.4 1543.66C1212.15 1543.66 1193.18 1412.15 1193.18 1412.15L1192.84 1275.9H902.982V1234.99H1307.97C1307.97 1234.99 1502.34 1257 1502.34 950.999C1502.34 645 1332.69 655.851 1332.69 655.851H1231.45V797.847C1231.45 797.847 1236.9 967.227 1064.51 967.227C892.107 967.227 777.015 967.227 777.015 967.227C777.015 967.227 615.492 964.62 615.492 1123.08C615.492 1281.55 615.492 1385.1 615.492 1385.1C615.492 1385.1 590.969 1543.66 908.4 1543.66ZM1068.23 1452.04C1039.39 1452.04 1016.08 1428.77 1016.08 1399.97C1016.08 1371.18 1039.39 1347.91 1068.23 1347.91C1097.07 1347.91 1120.38 1371.18 1120.38 1399.97C1120.38 1428.77 1097.07 1452.04 1068.23 1452.04Z" fill="black"/>
<path d="M945.152 967.227H777.015C777.015 967.227 615.492 964.62 615.492 1123.08V1123.34L513.751 1096.26V660.85L944.307 741.058C944.606 801.798 944.952 886.47 945.152 967.227Z" fill="#0F0F0F"/>
<path d="M1181.62 926.065L1184.78 628.767L944.307 741.058V967.227H1064.51C1119.85 967.227 1156.87 949.77 1181.62 926.065Z" fill="#262626"/>
</svg>
